<?xml version="1.0" encoding="UTF-8"?>
<!DOCTYPE svg PUBLIC "-//W3C//DTD SVG 1.1//EN" "http://www.w3.org/Graphics/SVG/1.1/DTD/svg11.dtd">
<!-- Creator: CorelDRAW -->
<svg xmlns="http://www.w3.org/2000/svg" xml:space="preserve" width="4.28883in" height="3.56935in" version="1.1" style="shape-rendering:geometricPrecision; text-rendering:geometricPrecision; image-rendering:optimizeQuality; fill-rule:evenodd; clip-rule:evenodd"
viewBox="0 0 1998.39 1663.14"
 xmlns:xlink="http://www.w3.org/1999/xlink"
 xmlns:xodm="http://www.corel.com/coreldraw/odm/2003">
 <defs>
  <style type="text/css">
   <![CDATA[
    .fil4 {fill:#00B8F1;fill-rule:nonzero}
    .fil1 {fill:black;fill-opacity:0.200000}
    .fil3 {fill:url(#id0);fill-rule:nonzero}
    .fil0 {fill:url(#id1);fill-rule:nonzero}
    .fil2 {fill:url(#id2);fill-rule:nonzero}
   ]]>
  </style>
  <linearGradient id="id0" gradientUnits="userSpaceOnUse" x1="562.99" y1="941.86" x2="1998.39" y2="941.86">
   <stop offset="0" style="stop-opacity:1; stop-color:#00B8F1"/>
   <stop offset="1" style="stop-opacity:1; stop-color:#56C9EF"/>
  </linearGradient>
  <linearGradient id="id1" gradientUnits="userSpaceOnUse" x1="1830.77" y1="831.57" x2="167.62" y2="831.57">
   <stop offset="0" style="stop-opacity:1; stop-color:#414276"/>
   <stop offset="1" style="stop-opacity:1; stop-color:#00B8F1"/>
  </linearGradient>
  <radialGradient id="id2" gradientUnits="userSpaceOnUse" gradientTransform="matrix(1.00521 -0 -0 1.00522 -4 -4)" cx="794.92" cy="831.57" r="450.1" fx="794.92" fy="831.57">
   <stop offset="0" style="stop-opacity:1; stop-color:#00BBF1"/>
   <stop offset="0.270588" style="stop-opacity:1; stop-color:#0099D9"/>
   <stop offset="0.478431" style="stop-opacity:1; stop-color:#007CC2"/>
   <stop offset="1" style="stop-opacity:1; stop-color:#414276"/>
  </radialGradient>
 </defs>
 <g id="Layer_x0020_1">
  <metadata id="CorelCorpID_0Corel-Layer"/>
  <g id="_2486229192880">
   <path class="fil0" d="M999.19 1663.14c-229.63,0 -437.52,-93.08 -588.01,-243.56 -150.48,-150.48 -243.56,-358.38 -243.56,-588.01 0,-229.63 93.08,-437.52 243.56,-588.01 150.49,-150.48 358.38,-243.56 588.01,-243.56 229.63,0 437.53,93.08 588.01,243.56 84.1,84.1 150.25,186.12 192.27,299.85l-73.57 0c-38.7,-94.82 -95.93,-180.11 -167.18,-251.36 -138.07,-138.07 -328.82,-223.47 -539.52,-223.47 -210.7,0 -401.45,85.4 -539.52,223.47 -138.07,138.07 -223.47,328.82 -223.47,539.52 0,210.7 85.4,401.45 223.47,539.52 138.07,138.07 328.82,223.47 539.52,223.47 210.7,0 401.45,-85.4 539.52,-223.47 138.07,-138.07 223.47,-328.82 223.47,-539.52 0,-2.4 -0.02,-4.8 -0.04,-7.2l63 -89.97c3.71,31.88 5.63,64.3 5.63,97.17 0,229.63 -93.08,437.53 -243.57,588.01 -150.48,150.49 -358.38,243.56 -588.01,243.56z"/>
   <path class="fil1" d="M999.19 151.53c272.56,0 507.63,160.37 616.09,391.88l-619.2 0c-40.15,0 -77.78,19.59 -100.81,52.48l-297.1 424.3c-19.04,27.19 0.41,64.56 33.6,64.56l883.98 0c40.16,0 77.78,-19.59 100.81,-52.48l50.47 -72.07c-60.13,314.07 -336.24,551.42 -667.84,551.42 -375.58,0 -680.04,-304.46 -680.04,-680.04 0,-375.58 304.46,-680.04 680.04,-680.04z"/>
   <path class="fil2" d="M925.07 433.12c40.16,0 77.78,19.59 100.81,52.48l40.48 57.81 -70.27 0c-40.15,0 -77.78,19.59 -100.81,52.48l-297.1 424.3c-19.04,27.19 0.41,64.56 33.6,64.56l813.63 0 77.23 110.29c16.33,23.33 41.77,34.99 67.21,34.99l-1026.85 0c-25.44,0 -50.88,-11.66 -67.21,-34.99l-488.29 -697.36c-19.04,-27.19 0.41,-64.56 33.6,-64.56l883.98 0z"/>
   <path class="fil3" d="M1957.29 653.7c33.19,0 52.64,37.36 33.61,64.55l-333.85 476.78c-16.33,23.32 -41.77,34.98 -67.21,34.98l-1026.85 0c25.44,0 50.87,-11.66 67.21,-34.98l342.3 -488.85c23.03,-32.89 60.66,-52.48 100.81,-52.48l883.98 0z"/>
   <path class="fil4" d="M1143.59 653.7l379.04 541.33c16.33,23.32 41.77,34.98 67.21,34.98 25.44,0 50.87,-11.66 67.21,-34.98l333.85 -476.78c19.04,-27.19 -0.41,-64.55 -33.61,-64.55l-813.7 0z"/>
  </g>
 </g>
</svg>
