<?xml version="1.0" encoding="UTF-8"?>
<!DOCTYPE svg PUBLIC "-//W3C//DTD SVG 1.1//EN" "http://www.w3.org/Graphics/SVG/1.1/DTD/svg11.dtd">
<!-- Creator: CorelDRAW -->
<svg xmlns="http://www.w3.org/2000/svg" xml:space="preserve" width="3.99999in" height="2.18833in" version="1.1" style="shape-rendering:geometricPrecision; text-rendering:geometricPrecision; image-rendering:optimizeQuality; fill-rule:evenodd; clip-rule:evenodd"
viewBox="0 0 1794.6 981.8"
 xmlns:xlink="http://www.w3.org/1999/xlink"
 xmlns:xodm="http://www.corel.com/coreldraw/odm/2003">
 <defs>
  <style type="text/css">
   <![CDATA[
    .fil3 {fill:#00B8F1;fill-rule:nonzero}
    .fil1 {fill:white;fill-rule:nonzero}
    .fil4 {fill:white;fill-rule:nonzero}
    .fil2 {fill:url(#id0);fill-rule:nonzero}
    .fil5 {fill:url(#id1);fill-rule:nonzero}
    .fil0 {fill:url(#id2);fill-rule:nonzero}
   ]]>
  </style>
  <linearGradient id="id0" gradientUnits="userSpaceOnUse" x1="685.75" y1="246.73" x2="1381.89" y2="246.73">
   <stop offset="0" style="stop-opacity:1; stop-color:#00B8F1"/>
   <stop offset="1" style="stop-opacity:1; stop-color:#56C9EF"/>
  </linearGradient>
  <linearGradient id="id1" gradientUnits="objectBoundingBox" x1="125.077%" y1="16.1583%" x2="26.9226%" y2="37.8416%">
   <stop offset="0" style="stop-opacity:1; stop-color:#414276"/>
   <stop offset="1" style="stop-opacity:1; stop-color:#00BBF1"/>
  </linearGradient>
  <radialGradient id="id2" gradientUnits="userSpaceOnUse" gradientTransform="matrix(1.00521 -0 -0 1.00521 -4 -1)" cx="798.23" cy="193.24" r="744.31" fx="798.23" fy="193.24">
   <stop offset="0" style="stop-opacity:1; stop-color:#00BBF1"/>
   <stop offset="0.270588" style="stop-opacity:1; stop-color:#0099D9"/>
   <stop offset="0.478431" style="stop-opacity:1; stop-color:#007CC2"/>
   <stop offset="1" style="stop-opacity:1; stop-color:#414276"/>
  </radialGradient>
 </defs>
 <g id="Layer_x0020_1">
  <metadata id="CorelCorpID_0Corel-Layer"/>
  <g id="_1780971926640">
   <path class="fil0" d="M861.35 0c19.47,0 37.72,9.5 48.89,25.45l240.91 344.06c7.92,11.31 20.26,16.97 32.59,16.97l-498 0c-12.34,0 -24.67,-5.66 -32.59,-16.97l-236.81 -338.2c-9.23,-13.19 0.2,-31.31 16.3,-31.31l428.71 0z"/>
   <path class="fil1" d="M895.79 53.49l428.71 0c16.1,0 25.53,18.12 16.3,31.31l-144.09 205.78c-11.17,15.95 -29.42,25.45 -48.89,25.45l-428.71 0c-16.1,0 -25.53,-18.12 -16.3,-31.31l144.09 -205.78c11.17,-15.95 29.42,-25.45 48.89,-25.45z"/>
   <path class="fil2" d="M1361.96 106.98c16.1,0 25.53,18.12 16.3,31.31l-161.91 231.23c-7.92,11.31 -20.26,16.97 -32.59,16.97l-498 0c12.34,0 24.67,-5.66 32.59,-16.97l166.01 -237.08c11.17,-15.95 29.42,-25.45 48.89,-25.45l428.71 0z"/>
   <path class="fil3" d="M967.33 106.98l183.83 262.53c7.92,11.31 20.26,16.97 32.59,16.97 12.34,0 24.67,-5.66 32.59,-16.97l161.91 -231.23c9.23,-13.19 -0.2,-31.31 -16.3,-31.31l-394.63 0z"/>
   <g>
    <path class="fil4" d="M164.77 718.05l0 46.8c0,58.86 -27.46,88.33 -82.39,88.33 -54.92,0 -82.39,-29.47 -82.39,-88.33l0 -182.94c0,-58.94 27.46,-88.33 82.39,-88.33 54.92,0 82.39,29.39 82.39,88.33l0 34.33 -52.24 0 0 -37.76c0,-23.11 -9.55,-34.58 -28.64,-34.58 -19.17,0 -28.72,11.47 -28.72,34.58l0 189.81c0,22.94 9.54,34.33 28.72,34.33 19.09,0 28.64,-11.39 28.64,-34.33l0 -50.24 52.24 0z"/>
    <path id="_1" class="fil4" d="M279.57 497.51c54.92,0 82.39,28.97 82.39,87.08l0 45.63c0,57.85 -27.46,86.82 -82.39,86.82l-26.21 0 0 132.21 -55.26 0 0 -351.74 81.47 0zm-26.21 50.24l0 119.23 26.21 0c18,0 26.96,-11.14 26.96,-33.32l0 -52.75c0,-22.1 -8.96,-33.16 -26.96,-33.16l-26.21 0z"/>
    <polygon id="_2" class="fil4" points="442.75,645.88 518.77,645.88 518.77,695.95 442.75,695.95 442.75,798.93 538.11,798.93 538.11,849.25 387.49,849.25 387.49,497.51 538.11,497.51 538.11,547.75 442.75,547.75 "/>
    <polygon class="fil5" points="747.17,661.87 727.08,849.25 651.31,849.25 612.04,497.51 665.71,497.51 695.43,774.9 722.14,497.51 775.39,497.51 802.85,776.91 831.57,497.51 879.88,497.51 840.61,849.25 767.27,849.25 "/>
    <path id="_1_0" class="fil5" d="M1086.18 849.25l-55.68 0 -9.54 -63.8 -67.74 0 -9.55 63.8 -50.74 0 56.1 -351.74 80.96 0 56.18 351.74zm-126.09 -111.61l53.5 0 -26.71 -177.84 -26.79 177.84z"/>
    <polygon id="_2_1" class="fil5" points="1111.64,497.51 1166.9,497.51 1166.9,798.93 1257.82,798.93 1257.82,849.25 1111.64,849.25 "/>
    <polygon id="_3" class="fil5" points="1282.86,497.51 1338.12,497.51 1338.12,798.93 1429.05,798.93 1429.05,849.25 1282.86,849.25 "/>
    <polygon id="_4" class="fil5" points="1509.34,645.88 1585.36,645.88 1585.36,695.95 1509.34,695.95 1509.34,798.93 1604.71,798.93 1604.71,849.25 1454.08,849.25 1454.08,497.51 1604.71,497.51 1604.71,547.75 1509.34,547.75 "/>
    <polygon id="_5" class="fil5" points="1623.88,497.51 1794.6,497.51 1794.6,547.75 1736.91,547.75 1736.91,849.25 1681.73,849.25 1681.73,547.75 1623.88,547.75 "/>
   </g>
   <path class="fil4" d="M181.14 931.72c0.47,0.32 0.75,0.72 0.83,1.21 0.08,0.49 -0.04,0.97 -0.35,1.45 -0.28,0.35 -0.63,0.55 -1.06,0.59 -0.43,0.04 -0.85,-0.04 -1.24,-0.24 -1.5,-0.98 -3.1,-1.75 -4.81,-2.3 -1.71,-0.55 -3.55,-0.83 -5.52,-0.83 -2.4,0 -4.64,0.42 -6.7,1.27 -2.07,0.85 -3.87,2.07 -5.4,3.66 -1.53,1.6 -2.73,3.47 -3.57,5.64 -0.85,2.17 -1.27,4.55 -1.27,7.15 0,2.68 0.43,5.11 1.3,7.29 0.87,2.18 2.08,4.06 3.63,5.64 1.55,1.57 3.36,2.77 5.4,3.6 2.05,0.83 4.25,1.24 6.61,1.24 1.93,0 3.75,-0.28 5.46,-0.83 1.71,-0.55 3.32,-1.3 4.81,-2.24 0.39,-0.24 0.82,-0.33 1.27,-0.27 0.45,0.06 0.82,0.29 1.09,0.68 0.35,0.43 0.48,0.9 0.38,1.39 -0.1,0.49 -0.36,0.88 -0.8,1.15 -0.99,0.63 -2.15,1.22 -3.48,1.77 -1.34,0.55 -2.76,0.99 -4.25,1.33 -1.5,0.34 -2.99,0.5 -4.49,0.5 -2.83,0 -5.49,-0.51 -7.97,-1.53 -2.48,-1.02 -4.69,-2.47 -6.61,-4.34 -1.93,-1.87 -3.43,-4.1 -4.52,-6.7 -1.08,-2.6 -1.62,-5.49 -1.62,-8.68 0,-3.07 0.53,-5.9 1.59,-8.47 1.06,-2.58 2.54,-4.81 4.43,-6.7 1.89,-1.89 4.09,-3.37 6.61,-4.43 2.52,-1.06 5.22,-1.6 8.09,-1.6 2.24,0 4.41,0.31 6.49,0.94 2.09,0.63 3.98,1.52 5.67,2.66z"/>
   <path id="_1_2" class="fil4" d="M235.97 954.87c0,2.99 -0.65,5.68 -1.95,8.06 -1.3,2.38 -3.07,4.25 -5.31,5.61 -2.25,1.36 -4.8,2.04 -7.68,2.04 -2.79,0 -5.32,-0.68 -7.59,-2.04 -2.26,-1.36 -4.05,-3.23 -5.37,-5.61 -1.32,-2.38 -1.98,-5.07 -1.98,-8.06 0,-3.03 0.66,-5.73 1.98,-8.09 1.32,-2.36 3.11,-4.23 5.37,-5.61 2.26,-1.38 4.79,-2.07 7.59,-2.07 2.87,0 5.43,0.69 7.68,2.07 2.24,1.38 4.01,3.25 5.31,5.61 1.3,2.36 1.95,5.06 1.95,8.09zm-3.54 0c0,-2.4 -0.49,-4.54 -1.48,-6.41 -0.98,-1.87 -2.33,-3.35 -4.04,-4.43 -1.71,-1.08 -3.67,-1.63 -5.87,-1.63 -2.13,0 -4.06,0.54 -5.79,1.63 -1.73,1.08 -3.1,2.56 -4.1,4.43 -1,1.87 -1.5,4 -1.5,6.41 0,2.4 0.5,4.53 1.5,6.38 1.01,1.85 2.37,3.32 4.1,4.4 1.73,1.08 3.66,1.62 5.79,1.62 2.2,0 4.16,-0.54 5.87,-1.62 1.71,-1.08 3.06,-2.55 4.04,-4.4 0.98,-1.85 1.48,-3.98 1.48,-6.38z"/>
   <path id="_2_3" class="fil4" d="M276.98 939.1c2.6,0 4.67,0.52 6.23,1.56 1.56,1.04 2.68,2.46 3.37,4.25 0.69,1.79 1.03,3.77 1.03,5.93l0 17.36c0,0.47 -0.18,0.89 -0.53,1.24 -0.35,0.36 -0.77,0.53 -1.24,0.53 -0.55,0 -0.98,-0.18 -1.3,-0.53 -0.32,-0.35 -0.47,-0.77 -0.47,-1.24l0 -17.18c0,-1.57 -0.26,-3.01 -0.77,-4.31 -0.51,-1.3 -1.35,-2.34 -2.51,-3.13 -1.16,-0.79 -2.69,-1.18 -4.58,-1.18 -1.69,0 -3.3,0.39 -4.81,1.18 -1.52,0.79 -2.74,1.83 -3.69,3.13 -0.94,1.3 -1.42,2.74 -1.42,4.31l0 17.18c0,0.47 -0.18,0.89 -0.53,1.24 -0.36,0.36 -0.77,0.53 -1.24,0.53 -0.55,0 -0.98,-0.18 -1.3,-0.53 -0.31,-0.35 -0.47,-0.77 -0.47,-1.24l0 -26.45c0,-0.47 0.17,-0.88 0.5,-1.24 0.34,-0.35 0.76,-0.53 1.27,-0.53 0.51,0 0.93,0.18 1.27,0.53 0.33,0.36 0.5,0.77 0.5,1.24l0 4.96 -1.36 2.12c0.08,-1.26 0.48,-2.47 1.21,-3.63 0.73,-1.16 1.66,-2.2 2.8,-3.13 1.14,-0.92 2.41,-1.65 3.81,-2.18 1.4,-0.53 2.8,-0.8 4.22,-0.8z"/>
   <path id="_3_4" class="fil4" d="M314.15 939.93l13.76 0c0.47,0 0.87,0.17 1.18,0.5 0.31,0.34 0.47,0.74 0.47,1.21 0,0.43 -0.16,0.81 -0.47,1.12 -0.32,0.31 -0.71,0.47 -1.18,0.47l-13.76 0c-0.47,0 -0.88,-0.17 -1.21,-0.5 -0.33,-0.33 -0.5,-0.72 -0.5,-1.15 0,-0.47 0.17,-0.87 0.5,-1.18 0.34,-0.32 0.74,-0.47 1.21,-0.47zm6.08 -8.32c0.51,0 0.93,0.18 1.27,0.53 0.33,0.36 0.5,0.77 0.5,1.24l0 29.64c0,1.1 0.15,1.93 0.44,2.48 0.29,0.55 0.68,0.91 1.15,1.09 0.47,0.18 0.94,0.26 1.42,0.26 0.31,0 0.6,-0.05 0.86,-0.15 0.25,-0.1 0.54,-0.15 0.85,-0.15 0.36,0 0.66,0.14 0.92,0.41 0.25,0.28 0.38,0.63 0.38,1.06 0,0.55 -0.31,1.01 -0.94,1.39 -0.63,0.37 -1.38,0.56 -2.24,0.56 -0.36,0 -0.89,-0.03 -1.6,-0.09 -0.71,-0.06 -1.44,-0.28 -2.18,-0.65 -0.75,-0.37 -1.37,-1.03 -1.86,-1.98 -0.49,-0.94 -0.74,-2.3 -0.74,-4.07l0 -29.82c0,-0.47 0.17,-0.88 0.5,-1.24 0.34,-0.35 0.76,-0.53 1.27,-0.53z"/>
   <path id="_4_5" class="fil4" d="M358.76 968.21c0,0.47 -0.18,0.89 -0.53,1.24 -0.36,0.36 -0.77,0.53 -1.24,0.53 -0.51,0 -0.93,-0.18 -1.27,-0.53 -0.33,-0.35 -0.5,-0.77 -0.5,-1.24l0 -27.16c0,-0.47 0.17,-0.88 0.5,-1.24 0.34,-0.35 0.76,-0.53 1.27,-0.53 0.51,0 0.93,0.18 1.27,0.53 0.33,0.36 0.5,0.77 0.5,1.24l0 27.16zm-1.77 -32.89c-0.83,0 -1.45,-0.19 -1.86,-0.56 -0.41,-0.37 -0.62,-0.91 -0.62,-1.62l0 -0.59c0,-0.71 0.23,-1.25 0.68,-1.62 0.45,-0.37 1.07,-0.56 1.86,-0.56 0.75,0 1.33,0.19 1.74,0.56 0.41,0.37 0.62,0.91 0.62,1.62l0 0.59c0,0.71 -0.21,1.25 -0.62,1.62 -0.41,0.37 -1.01,0.56 -1.8,0.56z"/>
   <path id="_5_6" class="fil4" d="M401.43 939.1c2.6,0 4.67,0.52 6.23,1.56 1.56,1.04 2.68,2.46 3.37,4.25 0.69,1.79 1.03,3.77 1.03,5.93l0 17.36c0,0.47 -0.18,0.89 -0.53,1.24 -0.35,0.36 -0.77,0.53 -1.24,0.53 -0.55,0 -0.98,-0.18 -1.3,-0.53 -0.32,-0.35 -0.47,-0.77 -0.47,-1.24l0 -17.18c0,-1.57 -0.26,-3.01 -0.77,-4.31 -0.51,-1.3 -1.35,-2.34 -2.51,-3.13 -1.16,-0.79 -2.69,-1.18 -4.58,-1.18 -1.69,0 -3.3,0.39 -4.81,1.18 -1.52,0.79 -2.74,1.83 -3.69,3.13 -0.94,1.3 -1.42,2.74 -1.42,4.31l0 17.18c0,0.47 -0.18,0.89 -0.53,1.24 -0.36,0.36 -0.77,0.53 -1.24,0.53 -0.55,0 -0.98,-0.18 -1.3,-0.53 -0.31,-0.35 -0.47,-0.77 -0.47,-1.24l0 -26.45c0,-0.47 0.17,-0.88 0.5,-1.24 0.34,-0.35 0.76,-0.53 1.27,-0.53 0.51,0 0.93,0.18 1.27,0.53 0.33,0.36 0.5,0.77 0.5,1.24l0 4.96 -1.36 2.12c0.08,-1.26 0.48,-2.47 1.21,-3.63 0.73,-1.16 1.66,-2.2 2.8,-3.13 1.14,-0.92 2.41,-1.65 3.81,-2.18 1.4,-0.53 2.8,-0.8 4.22,-0.8z"/>
   <path id="_6" class="fil4" d="M463.1 939.99c0.51,0 0.94,0.18 1.27,0.53 0.33,0.36 0.5,0.77 0.5,1.24l0 16.65c0,3.9 -1.1,6.87 -3.31,8.92 -2.2,2.05 -5.18,3.07 -8.92,3.07 -3.7,0 -6.64,-1.02 -8.83,-3.07 -2.18,-2.05 -3.28,-5.02 -3.28,-8.92l0 -16.65c0,-0.47 0.17,-0.88 0.5,-1.24 0.34,-0.35 0.76,-0.53 1.27,-0.53 0.51,0 0.93,0.18 1.27,0.53 0.33,0.36 0.5,0.77 0.5,1.24l0 16.65c0,2.83 0.76,4.99 2.27,6.46 1.52,1.48 3.61,2.21 6.29,2.21 2.72,0 4.84,-0.74 6.38,-2.21 1.53,-1.47 2.3,-3.63 2.3,-6.46l0 -16.65c0,-0.47 0.16,-0.88 0.47,-1.24 0.31,-0.35 0.75,-0.53 1.3,-0.53z"/>
   <path id="_7" class="fil4" d="M496.79 968.21c0,0.47 -0.18,0.89 -0.53,1.24 -0.36,0.36 -0.77,0.53 -1.24,0.53 -0.51,0 -0.93,-0.18 -1.27,-0.53 -0.33,-0.35 -0.5,-0.77 -0.5,-1.24l0 -27.16c0,-0.47 0.17,-0.88 0.5,-1.24 0.34,-0.35 0.76,-0.53 1.27,-0.53 0.51,0 0.93,0.18 1.27,0.53 0.33,0.36 0.5,0.77 0.5,1.24l0 27.16zm-1.77 -32.89c-0.83,0 -1.45,-0.19 -1.86,-0.56 -0.41,-0.37 -0.62,-0.91 -0.62,-1.62l0 -0.59c0,-0.71 0.23,-1.25 0.68,-1.62 0.45,-0.37 1.07,-0.56 1.86,-0.56 0.75,0 1.33,0.19 1.74,0.56 0.41,0.37 0.62,0.91 0.62,1.62l0 0.59c0,0.71 -0.21,1.25 -0.62,1.62 -0.41,0.37 -1.01,0.56 -1.8,0.56z"/>
   <path id="_8" class="fil4" d="M539.46 939.1c2.6,0 4.67,0.52 6.23,1.56 1.56,1.04 2.68,2.46 3.37,4.25 0.69,1.79 1.03,3.77 1.03,5.93l0 17.36c0,0.47 -0.18,0.89 -0.53,1.24 -0.35,0.36 -0.77,0.53 -1.24,0.53 -0.55,0 -0.98,-0.18 -1.3,-0.53 -0.32,-0.35 -0.47,-0.77 -0.47,-1.24l0 -17.18c0,-1.57 -0.26,-3.01 -0.77,-4.31 -0.51,-1.3 -1.35,-2.34 -2.51,-3.13 -1.16,-0.79 -2.69,-1.18 -4.58,-1.18 -1.69,0 -3.3,0.39 -4.81,1.18 -1.52,0.79 -2.74,1.83 -3.69,3.13 -0.94,1.3 -1.42,2.74 -1.42,4.31l0 17.18c0,0.47 -0.18,0.89 -0.53,1.24 -0.36,0.36 -0.77,0.53 -1.24,0.53 -0.55,0 -0.98,-0.18 -1.3,-0.53 -0.31,-0.35 -0.47,-0.77 -0.47,-1.24l0 -26.45c0,-0.47 0.17,-0.88 0.5,-1.24 0.34,-0.35 0.76,-0.53 1.27,-0.53 0.51,0 0.93,0.18 1.27,0.53 0.33,0.36 0.5,0.77 0.5,1.24l0 4.96 -1.36 2.12c0.08,-1.26 0.48,-2.47 1.21,-3.63 0.73,-1.16 1.66,-2.2 2.8,-3.13 1.14,-0.92 2.41,-1.65 3.81,-2.18 1.4,-0.53 2.8,-0.8 4.22,-0.8z"/>
   <path id="_9" class="fil4" d="M591.16 939.1c1.77,0 3.4,0.31 4.9,0.91 1.5,0.61 2.8,1.4 3.93,2.36 1.12,0.96 2,1.99 2.63,3.07 0.63,1.08 0.94,2.12 0.94,3.1l-1 -1.42 0 -5.49c0,-0.51 0.17,-0.94 0.5,-1.3 0.33,-0.35 0.76,-0.53 1.27,-0.53 0.55,0 0.99,0.18 1.3,0.53 0.31,0.36 0.47,0.79 0.47,1.3l0 25.57c0,3.15 -0.65,5.81 -1.95,7.97 -1.3,2.17 -3.06,3.81 -5.28,4.93 -2.22,1.12 -4.75,1.68 -7.59,1.68 -1.38,0 -2.82,-0.18 -4.34,-0.53 -1.52,-0.35 -2.81,-0.81 -3.9,-1.36 -1.08,-0.55 -1.68,-1.12 -1.8,-1.71 -0.31,-0.36 -0.46,-0.7 -0.44,-1.03 0.02,-0.34 0.19,-0.62 0.5,-0.86 0.39,-0.28 0.81,-0.31 1.24,-0.09 0.43,0.22 1.08,0.5 1.95,0.86 0.39,0.12 0.93,0.29 1.6,0.53 0.67,0.24 1.47,0.44 2.39,0.62 0.93,0.18 1.9,0.27 2.92,0.27 3.54,0 6.29,-1.01 8.24,-3.04 1.95,-2.03 2.92,-4.69 2.92,-8l0 -5.67 0.65 0.18c-0.35,1.42 -0.93,2.66 -1.74,3.72 -0.81,1.06 -1.76,1.96 -2.86,2.69 -1.1,0.73 -2.29,1.28 -3.57,1.65 -1.28,0.37 -2.55,0.56 -3.81,0.56 -2.72,0 -5.16,-0.69 -7.32,-2.07 -2.17,-1.38 -3.89,-3.25 -5.17,-5.61 -1.28,-2.36 -1.92,-5.06 -1.92,-8.09 0,-2.99 0.64,-5.68 1.92,-8.06 1.28,-2.38 2.99,-4.25 5.14,-5.61 2.15,-1.36 4.58,-2.04 7.29,-2.04zm0.41 3.31c-2.17,0 -4.1,0.54 -5.82,1.63 -1.71,1.08 -3.05,2.56 -4.02,4.43 -0.96,1.87 -1.45,3.98 -1.45,6.35 0,2.36 0.48,4.49 1.45,6.38 0.96,1.89 2.3,3.38 4.02,4.46 1.71,1.08 3.65,1.62 5.82,1.62 2.16,0 4.09,-0.53 5.79,-1.59 1.69,-1.06 3.03,-2.53 4.01,-4.4 0.98,-1.87 1.48,-4.03 1.48,-6.47 0,-2.44 -0.49,-4.59 -1.48,-6.46 -0.98,-1.87 -2.32,-3.33 -4.01,-4.37 -1.69,-1.04 -3.62,-1.56 -5.79,-1.56z"/>
   <path id="_10" class="fil4" d="M667.42 928.65c2.2,0 4.15,0.5 5.85,1.5 1.69,1.01 3.03,2.39 4.01,4.16 0.98,1.77 1.48,3.8 1.48,6.08 0,2.28 -0.49,4.34 -1.48,6.17 -0.98,1.83 -2.32,3.28 -4.01,4.34 -1.69,1.06 -3.64,1.6 -5.85,1.6l-12.52 0 0.29 -0.59 0 16.3c0,0.47 -0.18,0.89 -0.53,1.24 -0.35,0.36 -0.77,0.53 -1.24,0.53 -0.55,0 -0.98,-0.18 -1.3,-0.53 -0.31,-0.35 -0.47,-0.77 -0.47,-1.24l0 -37.79c0,-0.47 0.18,-0.89 0.53,-1.24 0.36,-0.36 0.77,-0.53 1.24,-0.53l13.99 0zm0 20.43c1.53,0 2.87,-0.39 4.01,-1.15 1.14,-0.77 2.04,-1.81 2.69,-3.13 0.65,-1.32 0.97,-2.79 0.97,-4.4 0,-1.61 -0.33,-3.04 -0.97,-4.28 -0.65,-1.24 -1.55,-2.21 -2.69,-2.92 -1.14,-0.71 -2.48,-1.06 -4.01,-1.06l-12.52 0 0.29 -0.53 0 17.83 -0.35 -0.35 12.58 0z"/>
   <path id="_11" class="fil4" d="M706.95 969.99c-0.55,0 -0.98,-0.18 -1.3,-0.53 -0.31,-0.35 -0.47,-0.77 -0.47,-1.24l0 -26.45c0,-0.47 0.17,-0.88 0.5,-1.24 0.34,-0.35 0.76,-0.53 1.27,-0.53 0.51,0 0.93,0.18 1.27,0.53 0.33,0.36 0.5,0.77 0.5,1.24l0 8.86 -0.89 0.18c0.12,-1.38 0.46,-2.74 1.03,-4.1 0.57,-1.36 1.35,-2.61 2.33,-3.75 0.98,-1.14 2.15,-2.07 3.51,-2.77 1.36,-0.71 2.88,-1.06 4.58,-1.06 0.71,0 1.4,0.15 2.07,0.44 0.67,0.29 1,0.78 1,1.45 0,0.59 -0.16,1.04 -0.47,1.36 -0.32,0.31 -0.69,0.47 -1.12,0.47 -0.35,0 -0.74,-0.1 -1.15,-0.29 -0.41,-0.2 -0.96,-0.29 -1.63,-0.29 -1.1,0 -2.2,0.33 -3.31,0.97 -1.1,0.65 -2.11,1.53 -3.01,2.63 -0.9,1.1 -1.62,2.33 -2.15,3.69 -0.53,1.36 -0.8,2.73 -0.8,4.1l0 14.58c0,0.47 -0.18,0.89 -0.53,1.24 -0.36,0.36 -0.77,0.53 -1.24,0.53z"/>
   <path id="_12" class="fil4" d="M773.94 954.87c0,2.99 -0.65,5.68 -1.95,8.06 -1.3,2.38 -3.07,4.25 -5.31,5.61 -2.25,1.36 -4.8,2.04 -7.68,2.04 -2.79,0 -5.32,-0.68 -7.59,-2.04 -2.26,-1.36 -4.05,-3.23 -5.37,-5.61 -1.32,-2.38 -1.98,-5.07 -1.98,-8.06 0,-3.03 0.66,-5.73 1.98,-8.09 1.32,-2.36 3.11,-4.23 5.37,-5.61 2.26,-1.38 4.79,-2.07 7.59,-2.07 2.87,0 5.43,0.69 7.68,2.07 2.24,1.38 4.01,3.25 5.31,5.61 1.3,2.36 1.95,5.06 1.95,8.09zm-3.54 0c0,-2.4 -0.49,-4.54 -1.48,-6.41 -0.98,-1.87 -2.33,-3.35 -4.04,-4.43 -1.71,-1.08 -3.67,-1.63 -5.87,-1.63 -2.13,0 -4.06,0.54 -5.79,1.63 -1.73,1.08 -3.1,2.56 -4.1,4.43 -1,1.87 -1.5,4 -1.5,6.41 0,2.4 0.5,4.53 1.5,6.38 1.01,1.85 2.37,3.32 4.1,4.4 1.73,1.08 3.66,1.62 5.79,1.62 2.2,0 4.16,-0.54 5.87,-1.62 1.71,-1.08 3.06,-2.55 4.04,-4.4 0.98,-1.85 1.48,-3.98 1.48,-6.38z"/>
   <path id="_13" class="fil4" d="M811.65 926.53c0.59,0 1.23,0.06 1.92,0.18 0.69,0.12 1.29,0.33 1.8,0.62 0.51,0.29 0.77,0.74 0.77,1.33 0,0.43 -0.16,0.82 -0.47,1.15 -0.32,0.33 -0.67,0.5 -1.06,0.5 -0.39,0 -0.88,-0.11 -1.48,-0.33 -0.59,-0.22 -1.22,-0.33 -1.89,-0.33 -0.83,0 -1.54,0.19 -2.13,0.56 -0.59,0.37 -1.04,0.9 -1.36,1.6 -0.31,0.69 -0.47,1.52 -0.47,2.51l0 33.89c0,0.47 -0.17,0.89 -0.5,1.24 -0.34,0.36 -0.76,0.53 -1.27,0.53 -0.51,0 -0.94,-0.18 -1.27,-0.53 -0.33,-0.35 -0.5,-0.77 -0.5,-1.24l0 -33.89c0,-2.52 0.74,-4.45 2.21,-5.79 1.47,-1.34 3.38,-2.01 5.7,-2.01zm2.24 13.88c0.47,0 0.87,0.16 1.18,0.47 0.32,0.31 0.47,0.71 0.47,1.18 0,0.47 -0.16,0.87 -0.47,1.18 -0.31,0.32 -0.71,0.47 -1.18,0.47l-14.47 0c-0.43,0 -0.82,-0.17 -1.15,-0.5 -0.34,-0.33 -0.5,-0.72 -0.5,-1.15 0,-0.51 0.17,-0.92 0.5,-1.21 0.33,-0.29 0.72,-0.44 1.15,-0.44l14.47 0z"/>
   <path id="_14" class="fil4" d="M852.66 970.58c-3.03,0 -5.71,-0.65 -8.03,-1.95 -2.32,-1.3 -4.13,-3.11 -5.43,-5.43 -1.3,-2.32 -1.95,-5.04 -1.95,-8.15 0,-3.35 0.66,-6.2 1.98,-8.56 1.32,-2.36 3.03,-4.18 5.14,-5.46 2.11,-1.28 4.34,-1.92 6.7,-1.92 1.73,0 3.41,0.31 5.05,0.91 1.63,0.61 3.09,1.52 4.37,2.72 1.28,1.2 2.3,2.67 3.07,4.4 0.77,1.73 1.19,3.74 1.27,6.02 -0.04,0.47 -0.24,0.88 -0.59,1.21 -0.36,0.33 -0.77,0.5 -1.24,0.5l-23.68 0 -0.71 -3.19 23.26 0 -0.77 0.71 0 -1.18c-0.16,-1.85 -0.75,-3.42 -1.77,-4.72 -1.02,-1.3 -2.26,-2.28 -3.72,-2.95 -1.46,-0.67 -2.97,-1 -4.55,-1 -1.18,0 -2.39,0.24 -3.63,0.71 -1.24,0.47 -2.36,1.21 -3.37,2.21 -1,1 -1.82,2.28 -2.45,3.84 -0.63,1.55 -0.94,3.39 -0.94,5.52 0,2.32 0.47,4.43 1.42,6.32 0.94,1.89 2.31,3.38 4.1,4.49 1.79,1.1 3.93,1.65 6.41,1.65 1.38,0 2.62,-0.2 3.72,-0.59 1.1,-0.39 2.07,-0.91 2.89,-1.56 0.83,-0.65 1.52,-1.33 2.07,-2.04 0.43,-0.36 0.87,-0.53 1.3,-0.53 0.39,0 0.74,0.16 1.03,0.47 0.29,0.32 0.44,0.67 0.44,1.06 0,0.47 -0.2,0.88 -0.59,1.24 -1.18,1.42 -2.72,2.65 -4.61,3.69 -1.89,1.04 -3.95,1.56 -6.2,1.56z"/>
   <path id="_15" class="fil4" d="M889.89 965.2c-0.31,-0.47 -0.46,-0.93 -0.44,-1.39 0.02,-0.45 0.26,-0.82 0.74,-1.09 0.31,-0.28 0.68,-0.39 1.09,-0.35 0.41,0.04 0.8,0.23 1.15,0.59 1.06,1.38 2.35,2.49 3.87,3.34 1.52,0.85 3.32,1.27 5.4,1.27 1.1,0 2.2,-0.19 3.28,-0.56 1.08,-0.37 1.98,-0.94 2.69,-1.71 0.71,-0.77 1.06,-1.74 1.06,-2.92 0,-1.22 -0.36,-2.21 -1.06,-2.95 -0.71,-0.75 -1.62,-1.34 -2.75,-1.77 -1.12,-0.43 -2.31,-0.81 -3.57,-1.12 -1.34,-0.36 -2.64,-0.76 -3.9,-1.21 -1.26,-0.45 -2.37,-1.02 -3.34,-1.71 -0.96,-0.69 -1.74,-1.52 -2.33,-2.51 -0.59,-0.98 -0.88,-2.18 -0.88,-3.6 0,-1.65 0.45,-3.11 1.36,-4.37 0.9,-1.26 2.14,-2.24 3.69,-2.95 1.55,-0.71 3.32,-1.06 5.28,-1.06 0.98,0 2.05,0.13 3.19,0.38 1.14,0.26 2.26,0.68 3.37,1.27 1.1,0.59 2.09,1.4 2.95,2.42 0.36,0.35 0.53,0.76 0.53,1.21 0,0.45 -0.2,0.86 -0.59,1.21 -0.31,0.24 -0.68,0.36 -1.09,0.36 -0.41,0 -0.76,-0.16 -1.03,-0.47 -0.94,-1.06 -2.07,-1.87 -3.36,-2.42 -1.3,-0.55 -2.7,-0.83 -4.19,-0.83 -1.14,0 -2.21,0.19 -3.22,0.56 -1,0.37 -1.84,0.94 -2.51,1.68 -0.67,0.75 -1.01,1.73 -1.01,2.95 0.08,1.14 0.48,2.07 1.21,2.77 0.73,0.71 1.69,1.3 2.89,1.77 1.2,0.47 2.55,0.9 4.04,1.3 1.26,0.32 2.47,0.69 3.63,1.12 1.16,0.43 2.18,0.98 3.07,1.63 0.88,0.65 1.6,1.47 2.12,2.45 0.53,0.98 0.8,2.22 0.8,3.72 0,1.73 -0.48,3.23 -1.45,4.49 -0.96,1.26 -2.25,2.22 -3.87,2.89 -1.61,0.67 -3.41,1 -5.37,1 -2.13,0 -4.18,-0.41 -6.17,-1.24 -1.99,-0.83 -3.75,-2.2 -5.28,-4.13z"/>
   <path id="_16" class="fil4" d="M936.8 965.2c-0.31,-0.47 -0.46,-0.93 -0.44,-1.39 0.02,-0.45 0.26,-0.82 0.74,-1.09 0.31,-0.28 0.68,-0.39 1.09,-0.35 0.41,0.04 0.8,0.23 1.15,0.59 1.06,1.38 2.35,2.49 3.87,3.34 1.52,0.85 3.32,1.27 5.4,1.27 1.1,0 2.2,-0.19 3.28,-0.56 1.08,-0.37 1.98,-0.94 2.69,-1.71 0.71,-0.77 1.06,-1.74 1.06,-2.92 0,-1.22 -0.36,-2.21 -1.06,-2.95 -0.71,-0.75 -1.62,-1.34 -2.75,-1.77 -1.12,-0.43 -2.31,-0.81 -3.57,-1.12 -1.34,-0.36 -2.64,-0.76 -3.9,-1.21 -1.26,-0.45 -2.37,-1.02 -3.34,-1.71 -0.96,-0.69 -1.74,-1.52 -2.33,-2.51 -0.59,-0.98 -0.88,-2.18 -0.88,-3.6 0,-1.65 0.45,-3.11 1.36,-4.37 0.9,-1.26 2.14,-2.24 3.69,-2.95 1.55,-0.71 3.32,-1.06 5.28,-1.06 0.98,0 2.05,0.13 3.19,0.38 1.14,0.26 2.26,0.68 3.37,1.27 1.1,0.59 2.09,1.4 2.95,2.42 0.36,0.35 0.53,0.76 0.53,1.21 0,0.45 -0.2,0.86 -0.59,1.21 -0.31,0.24 -0.68,0.36 -1.09,0.36 -0.41,0 -0.76,-0.16 -1.03,-0.47 -0.94,-1.06 -2.07,-1.87 -3.36,-2.42 -1.3,-0.55 -2.7,-0.83 -4.19,-0.83 -1.14,0 -2.21,0.19 -3.22,0.56 -1,0.37 -1.84,0.94 -2.51,1.68 -0.67,0.75 -1.01,1.73 -1.01,2.95 0.08,1.14 0.48,2.07 1.21,2.77 0.73,0.71 1.69,1.3 2.89,1.77 1.2,0.47 2.55,0.9 4.04,1.3 1.26,0.32 2.47,0.69 3.63,1.12 1.16,0.43 2.18,0.98 3.07,1.63 0.88,0.65 1.6,1.47 2.12,2.45 0.53,0.98 0.8,2.22 0.8,3.72 0,1.73 -0.48,3.23 -1.45,4.49 -0.96,1.26 -2.25,2.22 -3.87,2.89 -1.61,0.67 -3.41,1 -5.37,1 -2.13,0 -4.18,-0.41 -6.17,-1.24 -1.99,-0.83 -3.75,-2.2 -5.28,-4.13z"/>
   <path id="_17" class="fil4" d="M988.86 968.21c0,0.47 -0.18,0.89 -0.53,1.24 -0.36,0.36 -0.77,0.53 -1.24,0.53 -0.51,0 -0.93,-0.18 -1.27,-0.53 -0.33,-0.35 -0.5,-0.77 -0.5,-1.24l0 -27.16c0,-0.47 0.17,-0.88 0.5,-1.24 0.34,-0.35 0.76,-0.53 1.27,-0.53 0.51,0 0.93,0.18 1.27,0.53 0.33,0.36 0.5,0.77 0.5,1.24l0 27.16zm-1.77 -32.89c-0.83,0 -1.45,-0.19 -1.86,-0.56 -0.41,-0.37 -0.62,-0.91 -0.62,-1.62l0 -0.59c0,-0.71 0.23,-1.25 0.68,-1.62 0.45,-0.37 1.07,-0.56 1.86,-0.56 0.75,0 1.33,0.19 1.74,0.56 0.41,0.37 0.62,0.91 0.62,1.62l0 0.59c0,0.71 -0.21,1.25 -0.62,1.62 -0.41,0.37 -1.01,0.56 -1.8,0.56z"/>
   <path id="_18" class="fil4" d="M1045.4 954.87c0,2.99 -0.65,5.68 -1.95,8.06 -1.3,2.38 -3.07,4.25 -5.31,5.61 -2.25,1.36 -4.8,2.04 -7.68,2.04 -2.79,0 -5.32,-0.68 -7.59,-2.04 -2.26,-1.36 -4.05,-3.23 -5.37,-5.61 -1.32,-2.38 -1.98,-5.07 -1.98,-8.06 0,-3.03 0.66,-5.73 1.98,-8.09 1.32,-2.36 3.11,-4.23 5.37,-5.61 2.26,-1.38 4.79,-2.07 7.59,-2.07 2.87,0 5.43,0.69 7.68,2.07 2.24,1.38 4.01,3.25 5.31,5.61 1.3,2.36 1.95,5.06 1.95,8.09zm-3.54 0c0,-2.4 -0.49,-4.54 -1.48,-6.41 -0.98,-1.87 -2.33,-3.35 -4.04,-4.43 -1.71,-1.08 -3.67,-1.63 -5.87,-1.63 -2.13,0 -4.06,0.54 -5.79,1.63 -1.73,1.08 -3.1,2.56 -4.1,4.43 -1,1.87 -1.5,4 -1.5,6.41 0,2.4 0.5,4.53 1.5,6.38 1.01,1.85 2.37,3.32 4.1,4.4 1.73,1.08 3.66,1.62 5.79,1.62 2.2,0 4.16,-0.54 5.87,-1.62 1.71,-1.08 3.06,-2.55 4.04,-4.4 0.98,-1.85 1.48,-3.98 1.48,-6.38z"/>
   <path id="_19" class="fil4" d="M1086.41 939.1c2.6,0 4.67,0.52 6.23,1.56 1.56,1.04 2.68,2.46 3.37,4.25 0.69,1.79 1.03,3.77 1.03,5.93l0 17.36c0,0.47 -0.18,0.89 -0.53,1.24 -0.35,0.36 -0.77,0.53 -1.24,0.53 -0.55,0 -0.98,-0.18 -1.3,-0.53 -0.32,-0.35 -0.47,-0.77 -0.47,-1.24l0 -17.18c0,-1.57 -0.26,-3.01 -0.77,-4.31 -0.51,-1.3 -1.35,-2.34 -2.51,-3.13 -1.16,-0.79 -2.69,-1.18 -4.58,-1.18 -1.69,0 -3.3,0.39 -4.81,1.18 -1.52,0.79 -2.74,1.83 -3.69,3.13 -0.94,1.3 -1.42,2.74 -1.42,4.31l0 17.18c0,0.47 -0.18,0.89 -0.53,1.24 -0.36,0.36 -0.77,0.53 -1.24,0.53 -0.55,0 -0.98,-0.18 -1.3,-0.53 -0.31,-0.35 -0.47,-0.77 -0.47,-1.24l0 -26.45c0,-0.47 0.17,-0.88 0.5,-1.24 0.34,-0.35 0.76,-0.53 1.27,-0.53 0.51,0 0.93,0.18 1.27,0.53 0.33,0.36 0.5,0.77 0.5,1.24l0 4.96 -1.36 2.12c0.08,-1.26 0.48,-2.47 1.21,-3.63 0.73,-1.16 1.66,-2.2 2.8,-3.13 1.14,-0.92 2.41,-1.65 3.81,-2.18 1.4,-0.53 2.8,-0.8 4.22,-0.8z"/>
   <path id="_20" class="fil4" d="M1150.27 939.81c0.51,0 0.93,0.18 1.27,0.53 0.33,0.36 0.5,0.79 0.5,1.3l0 26.57c0,0.47 -0.18,0.89 -0.53,1.24 -0.35,0.36 -0.77,0.53 -1.24,0.53 -0.51,0 -0.93,-0.18 -1.27,-0.53 -0.33,-0.35 -0.5,-0.77 -0.5,-1.24l0 -7.03 1.01 -0.47c0,1.1 -0.31,2.23 -0.92,3.37 -0.61,1.14 -1.45,2.2 -2.51,3.19 -1.06,0.98 -2.31,1.78 -3.75,2.39 -1.44,0.61 -2.98,0.91 -4.63,0.91 -2.68,0 -5.07,-0.69 -7.17,-2.07 -2.11,-1.38 -3.76,-3.27 -4.96,-5.67 -1.2,-2.4 -1.8,-5.1 -1.8,-8.09 0,-3.07 0.61,-5.78 1.83,-8.12 1.22,-2.34 2.87,-4.18 4.96,-5.52 2.09,-1.34 4.45,-2.01 7.08,-2.01 1.69,0 3.28,0.29 4.75,0.89 1.48,0.59 2.77,1.4 3.87,2.42 1.1,1.02 1.96,2.2 2.57,3.51 0.61,1.32 0.91,2.69 0.91,4.1l-1.24 -0.89 0 -7.5c0,-0.51 0.17,-0.94 0.5,-1.3 0.34,-0.35 0.76,-0.53 1.27,-0.53zm-12.28 27.46c2.09,0 3.94,-0.54 5.55,-1.62 1.61,-1.08 2.88,-2.58 3.81,-4.49 0.93,-1.91 1.39,-4.04 1.39,-6.41 0,-2.32 -0.46,-4.41 -1.39,-6.26 -0.92,-1.85 -2.19,-3.33 -3.81,-4.43 -1.61,-1.1 -3.46,-1.65 -5.55,-1.65 -2.05,0 -3.89,0.53 -5.52,1.6 -1.63,1.06 -2.91,2.52 -3.84,4.37 -0.93,1.85 -1.39,3.98 -1.39,6.38 0,2.36 0.46,4.5 1.39,6.41 0.93,1.91 2.2,3.41 3.81,4.49 1.61,1.08 3.47,1.62 5.55,1.62z"/>
   <path id="_21" class="fil4" d="M1184.43 968.21c0,0.47 -0.18,0.89 -0.53,1.24 -0.35,0.36 -0.77,0.53 -1.24,0.53 -0.51,0 -0.93,-0.18 -1.27,-0.53 -0.34,-0.35 -0.5,-0.77 -0.5,-1.24l0 -40.15c0,-0.47 0.18,-0.89 0.53,-1.24 0.36,-0.36 0.77,-0.53 1.24,-0.53 0.51,0 0.94,0.18 1.27,0.53 0.34,0.35 0.5,0.77 0.5,1.24l0 40.15z"/>
   <path id="_22" class="fil4" d="M1232.12 928.65l21.67 0c0.47,0 0.89,0.17 1.24,0.5 0.36,0.34 0.53,0.76 0.53,1.27 0,0.51 -0.18,0.93 -0.53,1.24 -0.35,0.31 -0.77,0.47 -1.24,0.47l-20.31 0 0.59 -1 0 16.59 -0.65 -0.77 17.71 0c0.47,0 0.88,0.18 1.24,0.53 0.35,0.36 0.53,0.77 0.53,1.24 0,0.51 -0.18,0.93 -0.53,1.24 -0.36,0.32 -0.77,0.47 -1.24,0.47l-17.6 0 0.53 -0.59 0 17.01 -0.3 -0.35 20.02 0c0.47,0 0.89,0.18 1.24,0.53 0.36,0.35 0.53,0.77 0.53,1.24 0,0.51 -0.18,0.92 -0.53,1.24 -0.35,0.31 -0.77,0.47 -1.24,0.47l-21.67 0c-0.47,0 -0.88,-0.18 -1.24,-0.53 -0.35,-0.35 -0.53,-0.77 -0.53,-1.24l0 -37.79c0,-0.47 0.18,-0.89 0.53,-1.24 0.36,-0.36 0.77,-0.53 1.24,-0.53z"/>
   <path id="_23" class="fil4" d="M1306.67 926.29c0.51,0 0.93,0.17 1.27,0.5 0.33,0.33 0.5,0.76 0.5,1.27l0 40.15c0,0.47 -0.18,0.89 -0.53,1.24 -0.35,0.36 -0.77,0.53 -1.24,0.53 -0.51,0 -0.93,-0.18 -1.27,-0.53 -0.33,-0.35 -0.5,-0.77 -0.5,-1.24l0 -7.03 1.01 -0.83c0,1.1 -0.3,2.25 -0.89,3.45 -0.59,1.2 -1.43,2.31 -2.51,3.33 -1.08,1.02 -2.34,1.85 -3.78,2.48 -1.44,0.63 -2.98,0.94 -4.63,0.94 -2.64,0 -5.01,-0.69 -7.12,-2.07 -2.11,-1.38 -3.77,-3.25 -4.99,-5.61 -1.22,-2.36 -1.83,-5.06 -1.83,-8.09 0,-2.99 0.61,-5.68 1.83,-8.06 1.22,-2.38 2.87,-4.25 4.96,-5.61 2.09,-1.36 4.45,-2.04 7.08,-2.04 1.61,0 3.15,0.29 4.61,0.89 1.46,0.59 2.74,1.4 3.87,2.42 1.12,1.02 2.01,2.2 2.66,3.51 0.65,1.32 0.97,2.69 0.97,4.1l-1.24 -0.89 0 -21.08c0,-0.47 0.17,-0.89 0.5,-1.24 0.34,-0.36 0.76,-0.53 1.27,-0.53zm-12.28 40.98c2.12,0 3.98,-0.54 5.58,-1.62 1.59,-1.08 2.85,-2.56 3.78,-4.43 0.93,-1.87 1.39,-4.01 1.39,-6.41 0,-2.36 -0.46,-4.48 -1.39,-6.35 -0.92,-1.87 -2.19,-3.35 -3.81,-4.43 -1.61,-1.08 -3.46,-1.63 -5.55,-1.63 -2.05,0 -3.89,0.54 -5.52,1.63 -1.63,1.08 -2.91,2.56 -3.84,4.43 -0.93,1.87 -1.39,3.98 -1.39,6.35 0,2.36 0.46,4.49 1.39,6.38 0.93,1.89 2.2,3.38 3.84,4.46 1.63,1.08 3.47,1.62 5.52,1.62z"/>
   <path id="_24" class="fil4" d="M1360.43 939.99c0.51,0 0.94,0.18 1.27,0.53 0.33,0.36 0.5,0.77 0.5,1.24l0 16.65c0,3.9 -1.1,6.87 -3.31,8.92 -2.2,2.05 -5.18,3.07 -8.92,3.07 -3.7,0 -6.64,-1.02 -8.83,-3.07 -2.18,-2.05 -3.28,-5.02 -3.28,-8.92l0 -16.65c0,-0.47 0.17,-0.88 0.5,-1.24 0.34,-0.35 0.76,-0.53 1.27,-0.53 0.51,0 0.93,0.18 1.27,0.53 0.33,0.36 0.5,0.77 0.5,1.24l0 16.65c0,2.83 0.76,4.99 2.27,6.46 1.52,1.48 3.61,2.21 6.29,2.21 2.72,0 4.84,-0.74 6.38,-2.21 1.53,-1.47 2.3,-3.63 2.3,-6.46l0 -16.65c0,-0.47 0.16,-0.88 0.47,-1.24 0.31,-0.35 0.75,-0.53 1.3,-0.53z"/>
   <path id="_25" class="fil4" d="M1403.98 939.1c1.89,0 3.62,0.21 5.2,0.62 1.57,0.41 2.84,0.98 3.81,1.68 0.96,0.71 1.45,1.48 1.45,2.3 0,0.39 -0.14,0.78 -0.41,1.15 -0.28,0.37 -0.65,0.56 -1.12,0.56 -0.47,0 -0.86,-0.12 -1.15,-0.35 -0.29,-0.24 -0.59,-0.51 -0.89,-0.83 -0.29,-0.32 -0.72,-0.61 -1.27,-0.89 -0.51,-0.24 -1.24,-0.45 -2.18,-0.65 -0.94,-0.2 -2.03,-0.29 -3.25,-0.29 -2.2,0 -4.19,0.55 -5.96,1.65 -1.77,1.1 -3.17,2.59 -4.19,4.46 -1.02,1.87 -1.53,3.97 -1.53,6.29 0,2.36 0.49,4.49 1.48,6.38 0.98,1.89 2.34,3.38 4.07,4.46 1.73,1.08 3.76,1.62 6.08,1.62 1.57,0 2.79,-0.14 3.66,-0.41 0.87,-0.28 1.61,-0.59 2.25,-0.94 0.75,-0.43 1.29,-0.85 1.62,-1.27 0.33,-0.41 0.78,-0.62 1.33,-0.62 0.51,0 0.9,0.15 1.15,0.44 0.26,0.29 0.38,0.68 0.38,1.15 0,0.63 -0.46,1.33 -1.39,2.1 -0.93,0.77 -2.2,1.44 -3.81,2.01 -1.61,0.57 -3.46,0.85 -5.55,0.85 -2.95,0 -5.54,-0.69 -7.76,-2.07 -2.22,-1.38 -3.96,-3.26 -5.2,-5.64 -1.24,-2.38 -1.86,-5.07 -1.86,-8.06 0,-2.87 0.63,-5.49 1.89,-7.85 1.26,-2.36 3.02,-4.26 5.28,-5.7 2.26,-1.44 4.89,-2.15 7.88,-2.15z"/>
   <path id="_26" class="fil4" d="M1465.24 939.81c0.51,0 0.93,0.18 1.27,0.53 0.33,0.36 0.5,0.79 0.5,1.3l0 26.57c0,0.47 -0.18,0.89 -0.53,1.24 -0.35,0.36 -0.77,0.53 -1.24,0.53 -0.51,0 -0.93,-0.18 -1.27,-0.53 -0.33,-0.35 -0.5,-0.77 -0.5,-1.24l0 -7.03 1.01 -0.47c0,1.1 -0.31,2.23 -0.92,3.37 -0.61,1.14 -1.45,2.2 -2.51,3.19 -1.06,0.98 -2.31,1.78 -3.75,2.39 -1.44,0.61 -2.98,0.91 -4.63,0.91 -2.68,0 -5.07,-0.69 -7.17,-2.07 -2.11,-1.38 -3.76,-3.27 -4.96,-5.67 -1.2,-2.4 -1.8,-5.1 -1.8,-8.09 0,-3.07 0.61,-5.78 1.83,-8.12 1.22,-2.34 2.87,-4.18 4.96,-5.52 2.09,-1.34 4.45,-2.01 7.08,-2.01 1.69,0 3.28,0.29 4.75,0.89 1.48,0.59 2.77,1.4 3.87,2.42 1.1,1.02 1.96,2.2 2.57,3.51 0.61,1.32 0.91,2.69 0.91,4.1l-1.24 -0.89 0 -7.5c0,-0.51 0.17,-0.94 0.5,-1.3 0.34,-0.35 0.76,-0.53 1.27,-0.53zm-12.28 27.46c2.09,0 3.94,-0.54 5.55,-1.62 1.61,-1.08 2.88,-2.58 3.81,-4.49 0.93,-1.91 1.39,-4.04 1.39,-6.41 0,-2.32 -0.46,-4.41 -1.39,-6.26 -0.92,-1.85 -2.19,-3.33 -3.81,-4.43 -1.61,-1.1 -3.46,-1.65 -5.55,-1.65 -2.05,0 -3.89,0.53 -5.52,1.6 -1.63,1.06 -2.91,2.52 -3.84,4.37 -0.93,1.85 -1.39,3.98 -1.39,6.38 0,2.36 0.46,4.5 1.39,6.41 0.93,1.91 2.2,3.41 3.81,4.49 1.61,1.08 3.47,1.62 5.55,1.62z"/>
   <path id="_27" class="fil4" d="M1493.56 939.93l13.76 0c0.47,0 0.87,0.17 1.18,0.5 0.31,0.34 0.47,0.74 0.47,1.21 0,0.43 -0.16,0.81 -0.47,1.12 -0.32,0.31 -0.71,0.47 -1.18,0.47l-13.76 0c-0.47,0 -0.88,-0.17 -1.21,-0.5 -0.33,-0.33 -0.5,-0.72 -0.5,-1.15 0,-0.47 0.17,-0.87 0.5,-1.18 0.34,-0.32 0.74,-0.47 1.21,-0.47zm6.08 -8.32c0.51,0 0.93,0.18 1.27,0.53 0.33,0.36 0.5,0.77 0.5,1.24l0 29.64c0,1.1 0.15,1.93 0.44,2.48 0.29,0.55 0.68,0.91 1.15,1.09 0.47,0.18 0.94,0.26 1.42,0.26 0.31,0 0.6,-0.05 0.86,-0.15 0.25,-0.1 0.54,-0.15 0.85,-0.15 0.36,0 0.66,0.14 0.92,0.41 0.25,0.28 0.38,0.63 0.38,1.06 0,0.55 -0.31,1.01 -0.94,1.39 -0.63,0.37 -1.38,0.56 -2.24,0.56 -0.36,0 -0.89,-0.03 -1.6,-0.09 -0.71,-0.06 -1.44,-0.28 -2.18,-0.65 -0.75,-0.37 -1.37,-1.03 -1.86,-1.98 -0.49,-0.94 -0.74,-2.3 -0.74,-4.07l0 -29.82c0,-0.47 0.17,-0.88 0.5,-1.24 0.34,-0.35 0.76,-0.53 1.27,-0.53z"/>
   <path id="_28" class="fil4" d="M1538.17 968.21c0,0.47 -0.18,0.89 -0.53,1.24 -0.36,0.36 -0.77,0.53 -1.24,0.53 -0.51,0 -0.93,-0.18 -1.27,-0.53 -0.33,-0.35 -0.5,-0.77 -0.5,-1.24l0 -27.16c0,-0.47 0.17,-0.88 0.5,-1.24 0.34,-0.35 0.76,-0.53 1.27,-0.53 0.51,0 0.93,0.18 1.27,0.53 0.33,0.36 0.5,0.77 0.5,1.24l0 27.16zm-1.77 -32.89c-0.83,0 -1.45,-0.19 -1.86,-0.56 -0.41,-0.37 -0.62,-0.91 -0.62,-1.62l0 -0.59c0,-0.71 0.23,-1.25 0.68,-1.62 0.45,-0.37 1.07,-0.56 1.86,-0.56 0.75,0 1.33,0.19 1.74,0.56 0.41,0.37 0.62,0.91 0.62,1.62l0 0.59c0,0.71 -0.21,1.25 -0.62,1.62 -0.41,0.37 -1.01,0.56 -1.8,0.56z"/>
   <path id="_29" class="fil4" d="M1594.71 954.87c0,2.99 -0.65,5.68 -1.95,8.06 -1.3,2.38 -3.07,4.25 -5.31,5.61 -2.25,1.36 -4.8,2.04 -7.68,2.04 -2.79,0 -5.32,-0.68 -7.59,-2.04 -2.26,-1.36 -4.05,-3.23 -5.37,-5.61 -1.32,-2.38 -1.98,-5.07 -1.98,-8.06 0,-3.03 0.66,-5.73 1.98,-8.09 1.32,-2.36 3.11,-4.23 5.37,-5.61 2.26,-1.38 4.79,-2.07 7.59,-2.07 2.87,0 5.43,0.69 7.68,2.07 2.24,1.38 4.01,3.25 5.31,5.61 1.3,2.36 1.95,5.06 1.95,8.09zm-3.54 0c0,-2.4 -0.49,-4.54 -1.48,-6.41 -0.98,-1.87 -2.33,-3.35 -4.04,-4.43 -1.71,-1.08 -3.67,-1.63 -5.87,-1.63 -2.13,0 -4.06,0.54 -5.79,1.63 -1.73,1.08 -3.1,2.56 -4.1,4.43 -1,1.87 -1.5,4 -1.5,6.41 0,2.4 0.5,4.53 1.5,6.38 1.01,1.85 2.37,3.32 4.1,4.4 1.73,1.08 3.66,1.62 5.79,1.62 2.2,0 4.16,-0.54 5.87,-1.62 1.71,-1.08 3.06,-2.55 4.04,-4.4 0.98,-1.85 1.48,-3.98 1.48,-6.38z"/>
   <path id="_30" class="fil4" d="M1635.73 939.1c2.6,0 4.67,0.52 6.23,1.56 1.56,1.04 2.68,2.46 3.37,4.25 0.69,1.79 1.03,3.77 1.03,5.93l0 17.36c0,0.47 -0.18,0.89 -0.53,1.24 -0.35,0.36 -0.77,0.53 -1.24,0.53 -0.55,0 -0.98,-0.18 -1.3,-0.53 -0.32,-0.35 -0.47,-0.77 -0.47,-1.24l0 -17.18c0,-1.57 -0.26,-3.01 -0.77,-4.31 -0.51,-1.3 -1.35,-2.34 -2.51,-3.13 -1.16,-0.79 -2.69,-1.18 -4.58,-1.18 -1.69,0 -3.3,0.39 -4.81,1.18 -1.52,0.79 -2.74,1.83 -3.69,3.13 -0.94,1.3 -1.42,2.74 -1.42,4.31l0 17.18c0,0.47 -0.18,0.89 -0.53,1.24 -0.36,0.36 -0.77,0.53 -1.24,0.53 -0.55,0 -0.98,-0.18 -1.3,-0.53 -0.31,-0.35 -0.47,-0.77 -0.47,-1.24l0 -26.45c0,-0.47 0.17,-0.88 0.5,-1.24 0.34,-0.35 0.76,-0.53 1.27,-0.53 0.51,0 0.93,0.18 1.27,0.53 0.33,0.36 0.5,0.77 0.5,1.24l0 4.96 -1.36 2.12c0.08,-1.26 0.48,-2.47 1.21,-3.63 0.73,-1.16 1.66,-2.2 2.8,-3.13 1.14,-0.92 2.41,-1.65 3.81,-2.18 1.4,-0.53 2.8,-0.8 4.22,-0.8z"/>
  </g>
 </g>
</svg>
