<svg width="123" height="67" xmlns="http://www.w3.org/2000/svg" xmlns:xlink="http://www.w3.org/1999/xlink" xml:space="preserve" overflow="hidden"><defs><radialGradient cx="798.23" cy="193.24" r="744.31" gradientUnits="userSpaceOnUse" spreadMethod="pad" id="fill0" gradientTransform="matrix(0.0685975 0 0 0.0685975 -0.272968 -0.068242)"><stop offset="0" stop-color="#00BBF1"/><stop offset="0.270588" stop-color="#0099D9"/><stop offset="0.478431" stop-color="#007CC2"/><stop offset="1" stop-color="#414276"/></radialGradient><linearGradient x1="46.797" y1="16.8373" x2="94.3029" y2="16.8373" gradientUnits="userSpaceOnUse" spreadMethod="pad" id="fill1"><stop offset="0" stop-color="#00B8F1"/><stop offset="1" stop-color="#56C9EF"/></linearGradient><linearGradient x1="62.5903" y1="35.1532" x2="48.7257" y2="45.7108" gradientUnits="userSpaceOnUse" spreadMethod="pad" id="fill2"><stop offset="0" stop-color="#414276"/><stop offset="1" stop-color="#00BBF1"/></linearGradient><linearGradient x1="77.0278" y1="37.0972" x2="64.8882" y2="43.7668" gradientUnits="userSpaceOnUse" spreadMethod="pad" id="fill3"><stop offset="0" stop-color="#414276"/><stop offset="1" stop-color="#00BBF1"/></linearGradient><linearGradient x1="88.5389" y1="38.3138" x2="78.345" y2="42.5502" gradientUnits="userSpaceOnUse" spreadMethod="pad" id="fill4"><stop offset="0" stop-color="#414276"/><stop offset="1" stop-color="#00BBF1"/></linearGradient><linearGradient x1="100.224" y1="38.3135" x2="90.0297" y2="42.5505" gradientUnits="userSpaceOnUse" spreadMethod="pad" id="fill5"><stop offset="0" stop-color="#414276"/><stop offset="1" stop-color="#00BBF1"/></linearGradient><linearGradient x1="112.246" y1="38.2031" x2="101.837" y2="42.6609" gradientUnits="userSpaceOnUse" spreadMethod="pad" id="fill6"><stop offset="0" stop-color="#414276"/><stop offset="1" stop-color="#00BBF1"/></linearGradient><linearGradient x1="125.321" y1="37.6898" x2="114.021" y2="43.1742" gradientUnits="userSpaceOnUse" spreadMethod="pad" id="fill7"><stop offset="0" stop-color="#414276"/><stop offset="1" stop-color="#00BBF1"/></linearGradient></defs><g><path d="M58.7803 0C60.1089 0 61.3543 0.648299 62.1166 1.73676L78.5568 25.2161C79.0973 25.9879 79.9394 26.3742 80.7808 26.3742L46.7963 26.3742C45.9542 26.3742 45.1127 25.9879 44.5723 25.2161L28.4119 2.13666C27.782 1.23655 28.4255 2.42444e-16 29.5242 2.42444e-16L58.7803 2.42444e-16Z" fill="url(#fill0)" transform="matrix(1.00396 0 0 1 0.0236858 0)"/><path d="M61.1305 3.65026 90.3865 3.65026C91.4852 3.65026 92.1288 4.88681 91.4989 5.78692L81.6659 19.8298C80.9036 20.9182 79.6582 21.5665 78.3295 21.5665L49.0735 21.5665C47.9748 21.5665 47.3313 20.33 47.9612 19.4299L57.7942 5.38702C58.5564 4.29856 59.8018 3.65026 61.1305 3.65026Z" fill="#FFFFFF" transform="matrix(1.00396 0 0 1 0.0236858 0)"/><path d="M92.9429 7.30053C94.0416 7.30053 94.6851 8.53708 94.0552 9.43719L83.0062 25.2168C82.4657 25.9886 81.6236 26.3749 80.7822 26.3749L46.7976 26.3749C47.6397 26.3749 48.4812 25.9886 49.0216 25.2168L60.3505 9.03797C61.1128 7.94951 62.3582 7.30121 63.6869 7.30121L92.9429 7.30121Z" fill="url(#fill1)" transform="matrix(1.00396 0 0 1 0.0236858 0)"/><path d="M66.0125 7.30053 78.5575 25.2161C79.0979 25.9879 79.9401 26.3742 80.7815 26.3742 81.6236 26.3742 82.465 25.9879 83.0055 25.2161L94.0545 9.4365C94.6844 8.53639 94.0409 7.29985 92.9422 7.29985L66.0119 7.29985Z" fill="#00B8F1" transform="matrix(1.00396 0 0 1 0.0236858 0)"/><path d="M11.2442 49.0012 11.2442 52.1949C11.2442 56.2116 9.37031 58.2227 5.62178 58.2227 1.87393 58.2227-0.00068242 56.2116-0.00068242 52.1949L-0.00068242 39.7107C-0.00068242 35.6885 1.87324 33.6829 5.62178 33.6829 9.36963 33.6829 11.2442 35.6885 11.2442 39.7107L11.2442 42.0535 7.67927 42.0535 7.67927 39.4766C7.67927 37.8996 7.02756 37.1168 5.72482 37.1168 4.41662 37.1168 3.76491 37.8996 3.76491 39.4766L3.76491 52.4296C3.76491 53.9951 4.41594 54.7724 5.72482 54.7724 7.02756 54.7724 7.67927 53.9951 7.67927 52.4296L7.67927 49.0012 11.2442 49.0012Z" fill="#FFFFFF" transform="matrix(1.00396 0 0 1 0.0236858 0)"/><path d="M19.0784 33.9511C22.8263 33.9511 24.7009 35.9281 24.7009 39.8936L24.7009 43.0075C24.7009 46.9553 22.827 48.9322 19.0784 48.9322L17.2898 48.9322 17.2898 57.9545 13.5187 57.9545 13.5187 33.9511 19.0784 33.9511ZM17.2898 37.3796 17.2898 45.5161 19.0784 45.5161C20.3068 45.5161 20.9182 44.7558 20.9182 43.2422L20.9182 39.6425C20.9182 38.1343 20.3068 37.3796 19.0784 37.3796L17.2898 37.3796Z" fill="#FFFFFF" transform="matrix(1.00396 0 0 1 0.0236858 0)"/><path d="M30.2141 44.0761 35.4019 44.0761 35.4019 47.493 30.2141 47.493 30.2141 54.5206 36.7217 54.5206 36.7217 57.9545 26.4431 57.9545 26.4431 33.9511 36.7217 33.9511 36.7217 37.3796 30.2141 37.3796Z" fill="#FFFFFF" transform="matrix(1.00396 0 0 1 0.0236858 0)"/><path d="M50.9884 45.1673 49.6174 57.9545 44.4467 57.9545 41.7668 33.9511 45.4294 33.9511 47.4575 52.8807 49.2803 33.9511 52.9142 33.9511 54.7881 53.0179 56.748 33.9511 60.0448 33.9511 57.3649 57.9545 52.36 57.9545Z" fill="url(#fill2)" transform="matrix(1.00396 0 0 1 0.0236858 0)"/><path d="M74.1231 57.9545 70.3234 57.9545 69.6724 53.6007 65.0496 53.6007 64.3979 57.9545 60.9353 57.9545 64.7637 33.9511 70.2886 33.9511 74.1224 57.9545ZM65.5185 50.338 69.1694 50.338 67.3467 38.2019 65.5185 50.338Z" fill="url(#fill3)" transform="matrix(1.00396 0 0 1 0.0236858 0)"/><path d="M75.8605 33.9511 79.6316 33.9511 79.6316 54.5206 85.8362 54.5206 85.8362 57.9545 75.8605 57.9545Z" fill="url(#fill4)" transform="matrix(1.00396 0 0 1 0.0236858 0)"/><path d="M87.5449 33.9511 91.316 33.9511 91.316 54.5206 97.5212 54.5206 97.5212 57.9545 87.5449 57.9545Z" fill="url(#fill5)" transform="matrix(1.00396 0 0 1 0.0236858 0)"/><path d="M103 44.0761 108.188 44.0761 108.188 47.493 103 47.493 103 54.5206 109.509 54.5206 109.509 57.9545 99.2293 57.9545 99.2293 33.9511 109.509 33.9511 109.509 37.3796 103 37.3796Z" fill="url(#fill6)" transform="matrix(1.00396 0 0 1 0.0236858 0)"/><path d="M110.817 33.9511 122.467 33.9511 122.467 37.3796 118.53 37.3796 118.53 57.9545 114.765 57.9545 114.765 37.3796 110.817 37.3796Z" fill="url(#fill7)" transform="matrix(1.00396 0 0 1 0.0236858 0)"/><path d="M12.3614 63.5824C12.3934 63.6043 12.4125 63.6316 12.418 63.665 12.4235 63.6985 12.4153 63.7312 12.3941 63.764 12.375 63.7878 12.3511 63.8015 12.3218 63.8042 12.2924 63.807 12.2638 63.8015 12.2372 63.7878 12.1348 63.721 12.0256 63.6684 11.9089 63.6309 11.7922 63.5934 11.6667 63.5742 11.5322 63.5742 11.3684 63.5742 11.2156 63.6029 11.075 63.6609 10.9337 63.7189 10.8109 63.8022 10.7065 63.9107 10.6021 64.0199 10.5202 64.1475 10.4629 64.2956 10.4049 64.4437 10.3762 64.6061 10.3762 64.7835 10.3762 64.9664 10.4055 65.1322 10.4649 65.281 10.5243 65.4297 10.6069 65.558 10.7126 65.6659 10.8184 65.773 10.9419 65.8549 11.0811 65.9115 11.221 65.9682 11.3712 65.9962 11.5322 65.9962 11.6639 65.9962 11.7881 65.9771 11.9048 65.9395 12.0215 65.902 12.1314 65.8508 12.2331 65.7867 12.2597 65.7703 12.289 65.7641 12.3197 65.7682 12.3504 65.7723 12.3757 65.788 12.3941 65.8146 12.418 65.844 12.4269 65.8761 12.42 65.9095 12.4132 65.9429 12.3955 65.9696 12.3655 65.988 12.2979 66.031 12.2187 66.0712 12.128 66.1088 12.0365 66.1463 11.9396 66.1763 11.8379 66.1995 11.7356 66.2227 11.6339 66.2336 11.5315 66.2336 11.3384 66.2336 11.1569 66.1988 10.9876 66.1292 10.8184 66.0596 10.6676 65.9607 10.5366 65.8331 10.4049 65.7055 10.3025 65.5533 10.2281 65.3758 10.1544 65.1984 10.1176 65.0012 10.1176 64.7835 10.1176 64.574 10.1537 64.3809 10.2261 64.2055 10.2984 64.0294 10.3994 63.8772 10.5284 63.7483 10.6574 63.6193 10.8075 63.5183 10.9795 63.446 11.1514 63.3736 11.3357 63.3368 11.5315 63.3368 11.6844 63.3368 11.8325 63.3579 11.9744 63.4009 12.1171 63.4439 12.246 63.5046 12.3614 63.5824Z" fill="#FFFFFF" transform="matrix(1.00396 0 0 1 0.0236858 0)"/><path d="M16.1031 65.1622C16.1031 65.3663 16.0587 65.5499 15.97 65.7123 15.8813 65.8747 15.7605 66.0023 15.6076 66.0951 15.4541 66.1879 15.2801 66.2343 15.0835 66.2343 14.8931 66.2343 14.7205 66.1879 14.5656 66.0951 14.4113 66.0023 14.2892 65.8747 14.1991 65.7123 14.109 65.5499 14.064 65.3663 14.064 65.1622 14.064 64.9555 14.109 64.7712 14.1991 64.6102 14.2892 64.4491 14.4113 64.3215 14.5656 64.2273 14.7198 64.1332 14.8925 64.0861 15.0835 64.0861 15.2794 64.0861 15.4541 64.1332 15.6076 64.2273 15.7605 64.3215 15.8813 64.4491 15.97 64.6102 16.0587 64.7712 16.1031 64.9555 16.1031 65.1622ZM15.8615 65.1622C15.8615 64.9985 15.8281 64.8524 15.7605 64.7248 15.6936 64.5972 15.6015 64.4962 15.4848 64.4225 15.3681 64.3488 15.2343 64.3113 15.0842 64.3113 14.9389 64.3113 14.8071 64.3481 14.6891 64.4225 14.571 64.4962 14.4775 64.5972 14.4093 64.7248 14.3411 64.8524 14.3069 64.9978 14.3069 65.1622 14.3069 65.326 14.3411 65.4714 14.4093 65.5976 14.4782 65.7239 14.571 65.8242 14.6891 65.8979 14.8071 65.9716 14.9389 66.0084 15.0842 66.0084 15.2343 66.0084 15.3681 65.9716 15.4848 65.8979 15.6015 65.8242 15.6936 65.7239 15.7605 65.5976 15.8274 65.4714 15.8615 65.326 15.8615 65.1622Z" fill="#FFFFFF" transform="matrix(1.00396 0 0 1 0.0236858 0)"/><path d="M18.9017 64.0861C19.0791 64.0861 19.2204 64.1216 19.3268 64.1925 19.4333 64.2635 19.5097 64.3604 19.5568 64.4826 19.6039 64.6047 19.6271 64.7398 19.6271 64.8872L19.6271 66.0719C19.6271 66.104 19.6148 66.1326 19.5909 66.1565 19.567 66.1811 19.5384 66.1927 19.5063 66.1927 19.4688 66.1927 19.4394 66.1804 19.4176 66.1565 19.3957 66.1326 19.3855 66.104 19.3855 66.0719L19.3855 64.8995C19.3855 64.7924 19.3678 64.6941 19.333 64.6054 19.2982 64.5167 19.2408 64.4457 19.1617 64.3918 19.0825 64.3379 18.9781 64.3113 18.8491 64.3113 18.7338 64.3113 18.6239 64.3379 18.5209 64.3918 18.4172 64.4457 18.3339 64.5167 18.2691 64.6054 18.2049 64.6941 18.1722 64.7924 18.1722 64.8995L18.1722 66.0719C18.1722 66.104 18.1599 66.1326 18.136 66.1565 18.1114 66.1811 18.0834 66.1927 18.0514 66.1927 18.0138 66.1927 17.9845 66.1804 17.9627 66.1565 17.9415 66.1326 17.9306 66.104 17.9306 66.0719L17.9306 64.2669C17.9306 64.2348 17.9422 64.2069 17.9647 64.1823 17.9879 64.1584 18.0166 64.1461 18.0514 64.1461 18.0862 64.1461 18.1148 64.1584 18.138 64.1823 18.1606 64.2069 18.1722 64.2348 18.1722 64.2669L18.1722 64.6054 18.0794 64.7501C18.0848 64.6641 18.1121 64.5815 18.1619 64.5023 18.2117 64.4232 18.2752 64.3522 18.353 64.2887 18.4308 64.226 18.5175 64.1761 18.613 64.14 18.7085 64.1038 18.8041 64.0854 18.901 64.0854Z" fill="#FFFFFF" transform="matrix(1.00396 0 0 1 0.0236858 0)"/><path d="M21.4382 64.1427 22.3772 64.1427C22.4093 64.1427 22.4366 64.1543 22.4578 64.1768 22.4789 64.2 22.4898 64.2273 22.4898 64.2594 22.4898 64.2887 22.4789 64.3147 22.4578 64.3358 22.4359 64.357 22.4093 64.3679 22.3772 64.3679L21.4382 64.3679C21.4062 64.3679 21.3782 64.3563 21.3557 64.3338 21.3331 64.3113 21.3215 64.2847 21.3215 64.2553 21.3215 64.2232 21.3331 64.1959 21.3557 64.1748 21.3789 64.1529 21.4062 64.1427 21.4382 64.1427ZM21.8531 63.5749C21.8879 63.5749 21.9166 63.5872 21.9398 63.6111 21.9623 63.6357 21.9739 63.6636 21.9739 63.6957L21.9739 65.7184C21.9739 65.7935 21.9842 65.8501 22.004 65.8877 22.0237 65.9252 22.0504 65.9498 22.0824 65.962 22.1145 65.9743 22.1466 65.9798 22.1793 65.9798 22.2005 65.9798 22.2203 65.9764 22.238 65.9696 22.2551 65.9627 22.2749 65.9593 22.296 65.9593 22.3206 65.9593 22.3411 65.9689 22.3588 65.9873 22.3759 66.0064 22.3847 66.0303 22.3847 66.0596 22.3847 66.0972 22.3636 66.1286 22.3206 66.1545 22.2776 66.1797 22.2264 66.1927 22.1677 66.1927 22.1432 66.1927 22.107 66.1907 22.0585 66.1866 22.0101 66.1825 21.9603 66.1674 21.9098 66.1422 21.8586 66.117 21.8163 66.0719 21.7828 66.0071 21.7494 65.9429 21.7323 65.8501 21.7323 65.7293L21.7323 63.6944C21.7323 63.6623 21.7439 63.6343 21.7665 63.6097 21.7897 63.5859 21.8183 63.5736 21.8531 63.5736Z" fill="#FFFFFF" transform="matrix(1.00396 0 0 1 0.0236858 0)"/><path d="M24.4825 66.0726C24.4825 66.1047 24.4702 66.1333 24.4463 66.1572 24.4218 66.1818 24.3938 66.1934 24.3617 66.1934 24.3269 66.1934 24.2982 66.1811 24.275 66.1572 24.2525 66.1333 24.2409 66.1047 24.2409 66.0726L24.2409 64.2191C24.2409 64.1871 24.2525 64.1591 24.275 64.1345 24.2982 64.1106 24.3269 64.0984 24.3617 64.0984 24.3965 64.0984 24.4252 64.1106 24.4484 64.1345 24.4709 64.1591 24.4825 64.1871 24.4825 64.2191L24.4825 66.0726ZM24.3617 63.8281C24.3051 63.8281 24.2628 63.8151 24.2348 63.7899 24.2068 63.7646 24.1925 63.7278 24.1925 63.6793L24.1925 63.6391C24.1925 63.5906 24.2082 63.5538 24.2389 63.5285 24.2696 63.5033 24.3119 63.4903 24.3658 63.4903 24.417 63.4903 24.4566 63.5033 24.4846 63.5285 24.5125 63.5538 24.5269 63.5906 24.5269 63.6391L24.5269 63.6793C24.5269 63.7278 24.5125 63.7646 24.4846 63.7899 24.4566 63.8151 24.4156 63.8281 24.3617 63.8281Z" fill="#FFFFFF" transform="matrix(1.00396 0 0 1 0.0236858 0)"/><path d="M27.3944 64.0861C27.5718 64.0861 27.7131 64.1216 27.8195 64.1925 27.926 64.2635 28.0024 64.3604 28.0495 64.4826 28.0966 64.6047 28.1198 64.7398 28.1198 64.8872L28.1198 66.0719C28.1198 66.104 28.1075 66.1326 28.0836 66.1565 28.0597 66.1811 28.0311 66.1927 27.999 66.1927 27.9615 66.1927 27.9321 66.1804 27.9103 66.1565 27.8885 66.1326 27.8782 66.104 27.8782 66.0719L27.8782 64.8995C27.8782 64.7924 27.8605 64.6941 27.8257 64.6054 27.7909 64.5167 27.7336 64.4457 27.6544 64.3918 27.5752 64.3379 27.4708 64.3113 27.3418 64.3113 27.2265 64.3113 27.1166 64.3379 27.0136 64.3918 26.9099 64.4457 26.8266 64.5167 26.7618 64.6054 26.6976 64.6941 26.6649 64.7924 26.6649 64.8995L26.6649 66.0719C26.6649 66.104 26.6526 66.1326 26.6287 66.1565 26.6041 66.1811 26.5762 66.1927 26.5441 66.1927 26.5066 66.1927 26.4772 66.1804 26.4554 66.1565 26.4342 66.1326 26.4233 66.104 26.4233 66.0719L26.4233 64.2669C26.4233 64.2348 26.4349 64.2069 26.4574 64.1823 26.4806 64.1584 26.5093 64.1461 26.5441 64.1461 26.5789 64.1461 26.6076 64.1584 26.6308 64.1823 26.6533 64.2069 26.6649 64.2348 26.6649 64.2669L26.6649 64.6054 26.5721 64.7501C26.5775 64.6641 26.6048 64.5815 26.6546 64.5023 26.7045 64.4232 26.7679 64.3522 26.8457 64.2887 26.9235 64.226 27.0102 64.1761 27.1057 64.14 27.2013 64.1038 27.2968 64.0854 27.3937 64.0854Z" fill="#FFFFFF" transform="matrix(1.00396 0 0 1 0.0236858 0)"/><path d="M31.6029 64.1468C31.6377 64.1468 31.667 64.1591 31.6895 64.183 31.7121 64.2075 31.7237 64.2355 31.7237 64.2676L31.7237 65.4038C31.7237 65.67 31.6486 65.8726 31.4978 66.0125 31.3476 66.1524 31.1443 66.222 30.8891 66.222 30.6366 66.222 30.4359 66.1524 30.2865 66.0125 30.1377 65.8726 30.0627 65.67 30.0627 65.4038L30.0627 64.2676C30.0627 64.2355 30.0743 64.2075 30.0968 64.183 30.12 64.1591 30.1486 64.1468 30.1834 64.1468 30.2182 64.1468 30.2469 64.1591 30.2701 64.183 30.2926 64.2075 30.3042 64.2355 30.3042 64.2676L30.3042 65.4038C30.3042 65.5969 30.3561 65.7443 30.4591 65.8447 30.5629 65.9457 30.7055 65.9955 30.8884 65.9955 31.074 65.9955 31.2187 65.945 31.3238 65.8447 31.4282 65.7443 31.4807 65.5969 31.4807 65.4038L31.4807 64.2676C31.4807 64.2355 31.4916 64.2075 31.5128 64.183 31.5339 64.1591 31.564 64.1468 31.6015 64.1468Z" fill="#FFFFFF" transform="matrix(1.00396 0 0 1 0.0236858 0)"/><path d="M33.9019 66.0726C33.9019 66.1047 33.8897 66.1333 33.8658 66.1572 33.8412 66.1818 33.8132 66.1934 33.7812 66.1934 33.7464 66.1934 33.7177 66.1811 33.6945 66.1572 33.672 66.1333 33.6604 66.1047 33.6604 66.0726L33.6604 64.2191C33.6604 64.1871 33.672 64.1591 33.6945 64.1345 33.7177 64.1106 33.7464 64.0984 33.7812 64.0984 33.816 64.0984 33.8446 64.1106 33.8678 64.1345 33.8903 64.1591 33.9019 64.1871 33.9019 64.2191L33.9019 66.0726ZM33.7812 63.8281C33.7245 63.8281 33.6822 63.8151 33.6542 63.7899 33.6262 63.7646 33.6119 63.7278 33.6119 63.6793L33.6119 63.6391C33.6119 63.5906 33.6276 63.5538 33.6583 63.5285 33.689 63.5033 33.7313 63.4903 33.7853 63.4903 33.8364 63.4903 33.876 63.5033 33.904 63.5285 33.932 63.5538 33.9463 63.5906 33.9463 63.6391L33.9463 63.6793C33.9463 63.7278 33.932 63.7646 33.904 63.7899 33.876 63.8151 33.8351 63.8281 33.7812 63.8281Z" fill="#FFFFFF" transform="matrix(1.00396 0 0 1 0.0236858 0)"/><path d="M36.8138 64.0861C36.9913 64.0861 37.1325 64.1216 37.239 64.1925 37.3454 64.2635 37.4219 64.3604 37.469 64.4826 37.516 64.6047 37.5392 64.7398 37.5392 64.8872L37.5392 66.0719C37.5392 66.104 37.527 66.1326 37.5031 66.1565 37.4792 66.1811 37.4505 66.1927 37.4185 66.1927 37.3809 66.1927 37.3516 66.1804 37.3297 66.1565 37.3079 66.1326 37.2977 66.104 37.2977 66.0719L37.2977 64.8995C37.2977 64.7924 37.2799 64.6941 37.2451 64.6054 37.2103 64.5167 37.153 64.4457 37.0738 64.3918 36.9947 64.3379 36.8903 64.3113 36.7613 64.3113 36.646 64.3113 36.5361 64.3379 36.433 64.3918 36.3293 64.4457 36.2461 64.5167 36.1812 64.6054 36.1171 64.6941 36.0843 64.7924 36.0843 64.8995L36.0843 66.0719C36.0843 66.104 36.072 66.1326 36.0482 66.1565 36.0236 66.1811 35.9956 66.1927 35.9635 66.1927 35.926 66.1927 35.8967 66.1804 35.8748 66.1565 35.8537 66.1326 35.8427 66.104 35.8427 66.0719L35.8427 64.2669C35.8427 64.2348 35.8544 64.2069 35.8769 64.1823 35.9001 64.1584 35.9287 64.1461 35.9635 64.1461 35.9983 64.1461 36.027 64.1584 36.0502 64.1823 36.0727 64.2069 36.0843 64.2348 36.0843 64.2669L36.0843 64.6054 35.9915 64.7501C35.997 64.6641 36.0243 64.5815 36.0741 64.5023 36.1239 64.4232 36.1874 64.3522 36.2652 64.2887 36.343 64.226 36.4296 64.1761 36.5252 64.14 36.6207 64.1038 36.7162 64.0854 36.8132 64.0854Z" fill="#FFFFFF" transform="matrix(1.00396 0 0 1 0.0236858 0)"/><path d="M40.3419 64.0861C40.4627 64.0861 40.574 64.1072 40.6763 64.1482 40.7787 64.1898 40.8674 64.2437 40.9445 64.3092 41.021 64.3747 41.081 64.445 41.124 64.5187 41.167 64.5924 41.1881 64.6634 41.1881 64.7303L41.1199 64.6334 41.1199 64.2587C41.1199 64.2239 41.1315 64.1946 41.154 64.17 41.1765 64.1461 41.2059 64.1338 41.2407 64.1338 41.2782 64.1338 41.3083 64.1461 41.3294 64.17 41.3506 64.1946 41.3615 64.2239 41.3615 64.2587L41.3615 66.0037C41.3615 66.2186 41.3171 66.4002 41.2284 66.5476 41.1397 66.6956 41.0196 66.8076 40.8681 66.884 40.7166 66.9604 40.5439 66.9986 40.3501 66.9986 40.256 66.9986 40.1577 66.9864 40.054 66.9625 39.9502 66.9386 39.8622 66.9072 39.7878 66.8697 39.7141 66.8321 39.6732 66.7932 39.665 66.753 39.6438 66.7284 39.6336 66.7052 39.635 66.6827 39.6363 66.6595 39.6479 66.6404 39.6691 66.624 39.6957 66.6049 39.7244 66.6028 39.7537 66.6178 39.783 66.6329 39.8274 66.652 39.8868 66.6765 39.9134 66.6847 39.9502 66.6963 39.996 66.7127 40.0417 66.7291 40.0963 66.7427 40.1591 66.755 40.2225 66.7673 40.2887 66.7734 40.3583 66.7734 40.5999 66.7734 40.7876 66.7045 40.9206 66.566 41.0537 66.4275 41.1199 66.2459 41.1199 66.0201L41.1199 65.6331 41.1643 65.6454C41.1404 65.7423 41.1008 65.8269 41.0455 65.8993 40.9902 65.9716 40.9254 66.033 40.8503 66.0828 40.7753 66.1326 40.6941 66.1702 40.6067 66.1954 40.5194 66.2207 40.4327 66.2336 40.3467 66.2336 40.1611 66.2336 39.9946 66.1866 39.8472 66.0924 39.6991 65.9982 39.5817 65.8706 39.4944 65.7095 39.407 65.5485 39.3634 65.3642 39.3634 65.1575 39.3634 64.9534 39.407 64.7699 39.4944 64.6074 39.5817 64.445 39.6984 64.3174 39.8451 64.2246 39.9919 64.1318 40.1577 64.0854 40.3426 64.0854ZM40.3699 64.312C40.2218 64.312 40.0901 64.3488 39.9728 64.4232 39.8561 64.4969 39.7646 64.5979 39.6984 64.7255 39.6329 64.8531 39.5995 64.9971 39.5995 65.1588 39.5995 65.3199 39.6322 65.4652 39.6984 65.5942 39.7639 65.7232 39.8554 65.8249 39.9728 65.8986 40.0895 65.9723 40.2218 66.0091 40.3699 66.0091 40.5173 66.0091 40.649 65.973 40.765 65.9006 40.8804 65.8283 40.9718 65.728 41.0387 65.6004 41.1056 65.4727 41.1397 65.3253 41.1397 65.1588 41.1397 64.9923 41.1063 64.8456 41.0387 64.718 40.9718 64.5904 40.8804 64.4907 40.765 64.4198 40.6497 64.3488 40.518 64.3133 40.3699 64.3133Z" fill="#FFFFFF" transform="matrix(1.00396 0 0 1 0.0236858 0)"/><path d="M45.5461 63.3729C45.6962 63.3729 45.8293 63.4071 45.9453 63.4753 46.0606 63.5442 46.1521 63.6384 46.2189 63.7592 46.2858 63.88 46.3199 64.0185 46.3199 64.1741 46.3199 64.3297 46.2865 64.4703 46.2189 64.5952 46.1521 64.72 46.0606 64.819 45.9453 64.8913 45.83 64.9637 45.6969 65.0005 45.5461 65.0005L44.6917 65.0005 44.7115 64.9602 44.7115 66.0726C44.7115 66.1047 44.6992 66.1333 44.6753 66.1572 44.6514 66.1818 44.6228 66.1934 44.5907 66.1934 44.5532 66.1934 44.5238 66.1811 44.502 66.1572 44.4808 66.1333 44.4699 66.1047 44.4699 66.0726L44.4699 63.4937C44.4699 63.4617 44.4822 63.433 44.5061 63.4091 44.5306 63.3845 44.5586 63.3729 44.5907 63.3729L45.5454 63.3729ZM45.5461 64.7671C45.6505 64.7671 45.7419 64.7405 45.8197 64.6886 45.8975 64.6361 45.9589 64.5651 46.0033 64.475 46.0477 64.385 46.0695 64.2847 46.0695 64.1748 46.0695 64.0649 46.047 63.9673 46.0033 63.8827 45.9589 63.7981 45.8975 63.7319 45.8197 63.6834 45.7419 63.635 45.6505 63.6111 45.5461 63.6111L44.6917 63.6111 44.7115 63.5749 44.7115 64.7917 44.6876 64.7678 45.5461 64.7678Z" fill="#FFFFFF" transform="matrix(1.00396 0 0 1 0.0236858 0)"/><path d="M48.2437 66.1941C48.2062 66.1941 48.1768 66.1818 48.155 66.1579 48.1338 66.134 48.1229 66.1053 48.1229 66.0733L48.1229 64.2683C48.1229 64.2362 48.1345 64.2082 48.157 64.1837 48.1802 64.1598 48.2089 64.1475 48.2437 64.1475 48.2785 64.1475 48.3072 64.1598 48.3304 64.1837 48.3529 64.2082 48.3645 64.2362 48.3645 64.2683L48.3645 64.8729 48.3037 64.8852C48.3119 64.791 48.3351 64.6982 48.374 64.6054 48.4129 64.5126 48.4662 64.4273 48.533 64.3495 48.5999 64.2717 48.6798 64.2082 48.7726 64.1605 48.8654 64.112 48.9691 64.0881 49.0851 64.0881 49.1336 64.0881 49.1806 64.0984 49.2264 64.1181 49.2721 64.1379 49.2946 64.1714 49.2946 64.2171 49.2946 64.2574 49.2837 64.2881 49.2625 64.3099 49.2407 64.3311 49.2155 64.342 49.1861 64.342 49.1622 64.342 49.1356 64.3352 49.1076 64.3222 49.0797 64.3085 49.0421 64.3024 48.9964 64.3024 48.9213 64.3024 48.8463 64.3249 48.7705 64.3686 48.6954 64.4129 48.6265 64.473 48.5651 64.5481 48.5037 64.6231 48.4546 64.7071 48.4184 64.7999 48.3822 64.8927 48.3638 64.9862 48.3638 65.0797L48.3638 66.0746C48.3638 66.1067 48.3515 66.1354 48.3276 66.1593 48.3031 66.1838 48.2751 66.1954 48.243 66.1954Z" fill="#FFFFFF" transform="matrix(1.00396 0 0 1 0.0236858 0)"/><path d="M52.8152 65.1622C52.8152 65.3663 52.7709 65.5499 52.6821 65.7123 52.5934 65.8747 52.4726 66.0023 52.3198 66.0951 52.1662 66.1879 51.9922 66.2343 51.7957 66.2343 51.6053 66.2343 51.4326 66.1879 51.2777 66.0951 51.1235 66.0023 51.0013 65.8747 50.9113 65.7123 50.8212 65.5499 50.7761 65.3663 50.7761 65.1622 50.7761 64.9555 50.8212 64.7712 50.9113 64.6102 51.0013 64.4491 51.1235 64.3215 51.2777 64.2273 51.4319 64.1332 51.6046 64.0861 51.7957 64.0861 51.9915 64.0861 52.1662 64.1332 52.3198 64.2273 52.4726 64.3215 52.5934 64.4491 52.6821 64.6102 52.7709 64.7712 52.8152 64.9555 52.8152 65.1622ZM52.5736 65.1622C52.5736 64.9985 52.5402 64.8524 52.4726 64.7248 52.4058 64.5972 52.3136 64.4962 52.1969 64.4225 52.0802 64.3488 51.9465 64.3113 51.7964 64.3113 51.651 64.3113 51.5193 64.3481 51.4012 64.4225 51.2832 64.4962 51.1897 64.5972 51.1215 64.7248 51.0532 64.8524 51.0191 64.9978 51.0191 65.1622 51.0191 65.326 51.0532 65.4714 51.1215 65.5976 51.1904 65.7239 51.2832 65.8242 51.4012 65.8979 51.5193 65.9716 51.651 66.0084 51.7964 66.0084 51.9465 66.0084 52.0802 65.9716 52.1969 65.8979 52.3136 65.8242 52.4058 65.7239 52.4726 65.5976 52.5395 65.4714 52.5736 65.326 52.5736 65.1622Z" fill="#FFFFFF" transform="matrix(1.00396 0 0 1 0.0236858 0)"/><path d="M55.3886 63.2283C55.4289 63.2283 55.4726 63.2324 55.5196 63.2406 55.5667 63.2487 55.6077 63.2631 55.6425 63.2829 55.6773 63.3027 55.695 63.3334 55.695 63.3736 55.695 63.403 55.6841 63.4296 55.663 63.4521 55.6411 63.4746 55.6172 63.4862 55.5906 63.4862 55.564 63.4862 55.5306 63.4787 55.4896 63.4637 55.4494 63.4487 55.4064 63.4412 55.3606 63.4412 55.304 63.4412 55.2556 63.4541 55.2153 63.4794 55.175 63.5046 55.1443 63.5408 55.1225 63.5886 55.1013 63.6357 55.0904 63.6923 55.0904 63.7599L55.0904 66.0726C55.0904 66.1047 55.0788 66.1333 55.0563 66.1572 55.0331 66.1818 55.0044 66.1934 54.9696 66.1934 54.9348 66.1934 54.9055 66.1811 54.8829 66.1572 54.8604 66.1333 54.8488 66.1047 54.8488 66.0726L54.8488 63.7599C54.8488 63.5879 54.8993 63.4562 54.9996 63.3648 55.1 63.2733 55.2303 63.2276 55.3886 63.2276ZM55.5415 64.1755C55.5736 64.1755 55.6009 64.1864 55.622 64.2075 55.6438 64.2287 55.6541 64.256 55.6541 64.2881 55.6541 64.3201 55.6432 64.3474 55.622 64.3686 55.6009 64.3904 55.5736 64.4007 55.5415 64.4007L54.554 64.4007C54.5247 64.4007 54.4981 64.3891 54.4755 64.3665 54.4523 64.344 54.4414 64.3174 54.4414 64.2881 54.4414 64.2533 54.453 64.2253 54.4755 64.2055 54.4981 64.1857 54.5247 64.1755 54.554 64.1755L55.5415 64.1755Z" fill="#FFFFFF" transform="matrix(1.00396 0 0 1 0.0236858 0)"/><path d="M58.1872 66.2343C57.9805 66.2343 57.7976 66.19 57.6392 66.1013 57.4809 66.0125 57.3574 65.889 57.2687 65.7307 57.18 65.5724 57.1356 65.3868 57.1356 65.1745 57.1356 64.9459 57.1807 64.7514 57.2707 64.5904 57.3608 64.4293 57.4775 64.3051 57.6215 64.2178 57.7655 64.1304 57.9177 64.0867 58.0787 64.0867 58.1968 64.0867 58.3114 64.1079 58.4233 64.1488 58.5346 64.1905 58.6342 64.2526 58.7216 64.3345 58.8089 64.4164 58.8785 64.5167 58.9311 64.6347 58.9836 64.7528 59.0123 64.89 59.0177 65.0455 59.015 65.0776 59.0014 65.1056 58.9775 65.1281 58.9529 65.1506 58.9249 65.1622 58.8929 65.1622L57.2769 65.1622 57.2284 64.9445 58.8157 64.9445 58.7632 64.993 58.7632 64.9125C58.7523 64.7862 58.712 64.6791 58.6424 64.5904 58.5728 64.5017 58.4882 64.4348 58.3885 64.3891 58.2889 64.3433 58.1859 64.3208 58.078 64.3208 57.9975 64.3208 57.9149 64.3372 57.8303 64.3693 57.7457 64.4013 57.6693 64.4518 57.6003 64.5201 57.5321 64.5883 57.4761 64.6757 57.4332 64.7821 57.3902 64.8879 57.369 65.0135 57.369 65.1588 57.369 65.3172 57.4011 65.4611 57.4659 65.5901 57.5301 65.7191 57.6236 65.8208 57.7457 65.8965 57.8679 65.9716 58.0139 66.0091 58.1831 66.0091 58.2773 66.0091 58.3619 65.9955 58.437 65.9689 58.5121 65.9423 58.5783 65.9068 58.6342 65.8624 58.6909 65.818 58.7379 65.7716 58.7755 65.7232 58.8048 65.6986 58.8348 65.687 58.8642 65.687 58.8908 65.687 58.9147 65.6979 58.9345 65.7191 58.9543 65.7409 58.9645 65.7648 58.9645 65.7914 58.9645 65.8235 58.9509 65.8515 58.9242 65.8761 58.8437 65.973 58.7386 66.0569 58.6096 66.1279 58.4807 66.1988 58.3401 66.2343 58.1865 66.2343Z" fill="#FFFFFF" transform="matrix(1.00396 0 0 1 0.0236858 0)"/><path d="M60.7279 65.8672C60.7067 65.8351 60.6965 65.8037 60.6979 65.7723 60.6992 65.7416 60.7156 65.7164 60.7484 65.6979 60.7695 65.6788 60.7948 65.6713 60.8227 65.6741 60.8507 65.6768 60.8773 65.6898 60.9012 65.7143 60.9735 65.8085 61.0616 65.8842 61.1653 65.9423 61.269 66.0003 61.3919 66.0289 61.5338 66.0289 61.6089 66.0289 61.684 66.016 61.7576 65.9907 61.8314 65.9655 61.8928 65.9266 61.9412 65.874 61.9897 65.8215 62.0136 65.7553 62.0136 65.6747 62.0136 65.5915 61.989 65.5239 61.9412 65.4734 61.8928 65.4222 61.8307 65.382 61.7536 65.3526 61.6771 65.3233 61.5959 65.2974 61.5099 65.2762 61.4185 65.2516 61.3298 65.2243 61.2438 65.1936 61.1578 65.1629 61.0821 65.124 61.0159 65.0769 60.9503 65.0299 60.8971 64.9732 60.8569 64.9057 60.8166 64.8388 60.7968 64.7569 60.7968 64.66 60.7968 64.5474 60.8275 64.4478 60.8896 64.3618 60.951 64.2758 61.0357 64.2089 61.1414 64.1605 61.2472 64.112 61.368 64.0881 61.5017 64.0881 61.5686 64.0881 61.6416 64.097 61.7194 64.114 61.7972 64.1318 61.8737 64.1605 61.9494 64.2007 62.0245 64.241 62.092 64.2962 62.1507 64.3659 62.1753 64.3897 62.1869 64.4177 62.1869 64.4484 62.1869 64.4791 62.1732 64.5071 62.1466 64.531 62.1255 64.5474 62.1002 64.5556 62.0722 64.5556 62.0443 64.5556 62.0204 64.5447 62.002 64.5235 61.9378 64.4512 61.8607 64.3959 61.7727 64.3584 61.684 64.3208 61.5884 64.3017 61.4867 64.3017 61.4089 64.3017 61.3359 64.3147 61.267 64.3399 61.1987 64.3652 61.1414 64.4041 61.0957 64.4546 61.05 64.5058 61.0268 64.5726 61.0268 64.6559 61.0322 64.7337 61.0595 64.7971 61.1093 64.8449 61.1592 64.8934 61.2247 64.9336 61.3066 64.9657 61.3885 64.9978 61.4806 65.0271 61.5823 65.0544 61.6683 65.0763 61.7508 65.1015 61.83 65.1309 61.9091 65.1602 61.9788 65.1977 62.0395 65.2421 62.0995 65.2864 62.1487 65.3424 62.1842 65.4093 62.2203 65.4762 62.2388 65.5608 62.2388 65.6631 62.2388 65.7812 62.206 65.8836 62.1398 65.9696 62.0743 66.0555 61.9863 66.121 61.8757 66.1668 61.7658 66.2125 61.643 66.235 61.5093 66.235 61.3639 66.235 61.224 66.207 61.0882 66.1504 60.9524 66.0938 60.8323 66.0003 60.7279 65.8685Z" fill="#FFFFFF" transform="matrix(1.00396 0 0 1 0.0236858 0)"/><path d="M63.9291 65.8672C63.908 65.8351 63.8977 65.8037 63.8991 65.7723 63.9005 65.7416 63.9168 65.7164 63.9496 65.6979 63.9707 65.6788 63.996 65.6713 64.024 65.6741 64.0519 65.6768 64.0786 65.6898 64.1024 65.7143 64.1748 65.8085 64.2628 65.8842 64.3665 65.9423 64.4703 66.0003 64.5931 66.0289 64.735 66.0289 64.8101 66.0289 64.8852 66.016 64.9589 65.9907 65.0326 65.9655 65.094 65.9266 65.1425 65.874 65.1909 65.8215 65.2148 65.7553 65.2148 65.6747 65.2148 65.5915 65.1902 65.5239 65.1425 65.4734 65.094 65.4222 65.0319 65.382 64.9548 65.3526 64.8784 65.3233 64.7971 65.2974 64.7112 65.2762 64.6197 65.2516 64.531 65.2243 64.445 65.1936 64.359 65.1629 64.2833 65.124 64.2171 65.0769 64.1516 65.0299 64.0984 64.9732 64.0581 64.9057 64.0178 64.8388 63.998 64.7569 63.998 64.66 63.998 64.5474 64.0287 64.4478 64.0908 64.3618 64.1523 64.2758 64.2369 64.2089 64.3427 64.1605 64.4484 64.112 64.5692 64.0881 64.703 64.0881 64.7699 64.0881 64.8429 64.097 64.9207 64.114 64.9985 64.1318 65.0749 64.1605 65.1506 64.2007 65.2257 64.241 65.2933 64.2962 65.352 64.3659 65.3765 64.3897 65.3881 64.4177 65.3881 64.4484 65.3881 64.4791 65.3745 64.5071 65.3479 64.531 65.3267 64.5474 65.3015 64.5556 65.2735 64.5556 65.2455 64.5556 65.2216 64.5447 65.2032 64.5235 65.139 64.4512 65.0619 64.3959 64.9739 64.3584 64.8852 64.3208 64.7896 64.3017 64.688 64.3017 64.6102 64.3017 64.5371 64.3147 64.4682 64.3399 64.4 64.3652 64.3427 64.4041 64.2969 64.4546 64.2512 64.5058 64.228 64.5726 64.228 64.6559 64.2335 64.7337 64.2608 64.7971 64.3106 64.8449 64.3604 64.8934 64.4259 64.9336 64.5078 64.9657 64.5897 64.9978 64.6818 65.0271 64.7835 65.0544 64.8695 65.0763 64.9521 65.1015 65.0312 65.1309 65.1104 65.1602 65.18 65.1977 65.2407 65.2421 65.3008 65.2864 65.3499 65.3424 65.3854 65.4093 65.4216 65.4762 65.44 65.5608 65.44 65.6631 65.44 65.7812 65.4072 65.8836 65.341 65.9696 65.2755 66.0555 65.1875 66.121 65.0769 66.1668 64.9671 66.2125 64.8442 66.235 64.7105 66.235 64.5651 66.235 64.4252 66.207 64.2894 66.1504 64.1536 66.0938 64.0335 66.0003 63.9291 65.8685Z" fill="#FFFFFF" transform="matrix(1.00396 0 0 1 0.0236858 0)"/><path d="M67.4818 66.0726C67.4818 66.1047 67.4695 66.1333 67.4456 66.1572 67.4211 66.1818 67.3931 66.1934 67.361 66.1934 67.3262 66.1934 67.2975 66.1811 67.2743 66.1572 67.2518 66.1333 67.2402 66.1047 67.2402 66.0726L67.2402 64.2191C67.2402 64.1871 67.2518 64.1591 67.2743 64.1345 67.2975 64.1106 67.3262 64.0984 67.361 64.0984 67.3958 64.0984 67.4245 64.1106 67.4477 64.1345 67.4702 64.1591 67.4818 64.1871 67.4818 64.2191L67.4818 66.0726ZM67.361 63.8281C67.3044 63.8281 67.2621 63.8151 67.2341 63.7899 67.2061 63.7646 67.1918 63.7278 67.1918 63.6793L67.1918 63.6391C67.1918 63.5906 67.2075 63.5538 67.2382 63.5285 67.2689 63.5033 67.3112 63.4903 67.3651 63.4903 67.4163 63.4903 67.4559 63.5033 67.4838 63.5285 67.5118 63.5538 67.5261 63.5906 67.5261 63.6391L67.5261 63.6793C67.5261 63.7278 67.5118 63.7646 67.4838 63.7899 67.4559 63.8151 67.4149 63.8281 67.361 63.8281Z" fill="#FFFFFF" transform="matrix(1.00396 0 0 1 0.0236858 0)"/><path d="M71.3402 65.1622C71.3402 65.3663 71.2958 65.5499 71.2071 65.7123 71.1184 65.8747 70.9976 66.0023 70.8448 66.0951 70.6912 66.1879 70.5172 66.2343 70.3207 66.2343 70.1303 66.2343 69.9576 66.1879 69.8027 66.0951 69.6485 66.0023 69.5263 65.8747 69.4362 65.7123 69.3462 65.5499 69.3011 65.3663 69.3011 65.1622 69.3011 64.9555 69.3462 64.7712 69.4362 64.6102 69.5263 64.4491 69.6485 64.3215 69.8027 64.2273 69.9569 64.1332 70.1296 64.0861 70.3207 64.0861 70.5165 64.0861 70.6912 64.1332 70.8448 64.2273 70.9976 64.3215 71.1184 64.4491 71.2071 64.6102 71.2958 64.7712 71.3402 64.9555 71.3402 65.1622ZM71.0986 65.1622C71.0986 64.9985 71.0652 64.8524 70.9976 64.7248 70.9307 64.5972 70.8386 64.4962 70.7219 64.4225 70.6052 64.3488 70.4715 64.3113 70.3213 64.3113 70.176 64.3113 70.0443 64.3481 69.9262 64.4225 69.8082 64.4962 69.7147 64.5972 69.6464 64.7248 69.5782 64.8524 69.5441 64.9978 69.5441 65.1622 69.5441 65.326 69.5782 65.4714 69.6464 65.5976 69.7154 65.7239 69.8082 65.8242 69.9262 65.8979 70.0443 65.9716 70.176 66.0084 70.3213 66.0084 70.4715 66.0084 70.6052 65.9716 70.7219 65.8979 70.8386 65.8242 70.9307 65.7239 70.9976 65.5976 71.0645 65.4714 71.0986 65.326 71.0986 65.1622Z" fill="#FFFFFF" transform="matrix(1.00396 0 0 1 0.0236858 0)"/><path d="M74.1388 64.0861C74.3162 64.0861 74.4575 64.1216 74.5639 64.1925 74.6704 64.2635 74.7468 64.3604 74.7939 64.4826 74.841 64.6047 74.8642 64.7398 74.8642 64.8872L74.8642 66.0719C74.8642 66.104 74.8519 66.1326 74.828 66.1565 74.8042 66.1811 74.7755 66.1927 74.7434 66.1927 74.7059 66.1927 74.6765 66.1804 74.6547 66.1565 74.6329 66.1326 74.6226 66.104 74.6226 66.0719L74.6226 64.8995C74.6226 64.7924 74.6049 64.6941 74.5701 64.6054 74.5353 64.5167 74.478 64.4457 74.3988 64.3918 74.3196 64.3379 74.2152 64.3113 74.0863 64.3113 73.9709 64.3113 73.8611 64.3379 73.758 64.3918 73.6543 64.4457 73.571 64.5167 73.5062 64.6054 73.442 64.6941 73.4093 64.7924 73.4093 64.8995L73.4093 66.0719C73.4093 66.104 73.397 66.1326 73.3731 66.1565 73.3485 66.1811 73.3206 66.1927 73.2885 66.1927 73.251 66.1927 73.2216 66.1804 73.1998 66.1565 73.1786 66.1326 73.1677 66.104 73.1677 66.0719L73.1677 64.2669C73.1677 64.2348 73.1793 64.2069 73.2018 64.1823 73.225 64.1584 73.2537 64.1461 73.2885 64.1461 73.3233 64.1461 73.352 64.1584 73.3752 64.1823 73.3977 64.2069 73.4093 64.2348 73.4093 64.2669L73.4093 64.6054 73.3165 64.7501C73.3219 64.6641 73.3492 64.5815 73.399 64.5023 73.4489 64.4232 73.5123 64.3522 73.5901 64.2887 73.6679 64.226 73.7546 64.1761 73.8501 64.14 73.9457 64.1038 74.0412 64.0854 74.1381 64.0854Z" fill="#FFFFFF" transform="matrix(1.00396 0 0 1 0.0236858 0)"/><path d="M78.4967 64.1345C78.5315 64.1345 78.5602 64.1468 78.5834 64.1707 78.6059 64.1953 78.6175 64.2246 78.6175 64.2594L78.6175 66.0726C78.6175 66.1047 78.6052 66.1333 78.5814 66.1572 78.5575 66.1818 78.5288 66.1934 78.4967 66.1934 78.4619 66.1934 78.4333 66.1811 78.4101 66.1572 78.3876 66.1333 78.3759 66.1047 78.3759 66.0726L78.3759 65.5928 78.4449 65.5608C78.4449 65.6358 78.4237 65.713 78.3821 65.7908 78.3405 65.8685 78.2831 65.9409 78.2108 66.0084 78.1385 66.0753 78.0532 66.1299 77.9549 66.1715 77.8566 66.2132 77.7515 66.2336 77.6389 66.2336 77.456 66.2336 77.2929 66.1866 77.1496 66.0924 77.0056 65.9982 76.893 65.8692 76.8111 65.7055 76.7293 65.5417 76.6883 65.3574 76.6883 65.1534 76.6883 64.9439 76.7299 64.7589 76.8132 64.5993 76.8965 64.4396 77.0091 64.314 77.1517 64.2225 77.2943 64.1311 77.4554 64.0854 77.6348 64.0854 77.7502 64.0854 77.8587 64.1052 77.959 64.1461 78.06 64.1864 78.148 64.2417 78.2231 64.3113 78.2981 64.3809 78.3568 64.4614 78.3985 64.5508 78.4401 64.6409 78.4606 64.7344 78.4606 64.8306L78.3759 64.7699 78.3759 64.258C78.3759 64.2232 78.3876 64.1939 78.4101 64.1693 78.4333 64.1454 78.4619 64.1332 78.4967 64.1332ZM77.6587 66.0084C77.8013 66.0084 77.9276 65.9716 78.0375 65.8979 78.1473 65.8242 78.234 65.7218 78.2975 65.5915 78.3609 65.4611 78.3923 65.3158 78.3923 65.1541 78.3923 64.9957 78.3609 64.8531 78.2975 64.7269 78.2347 64.6006 78.148 64.4996 78.0375 64.4245 77.9276 64.3495 77.8013 64.312 77.6587 64.312 77.5188 64.312 77.3933 64.3481 77.282 64.4211 77.1708 64.4935 77.0834 64.5931 77.02 64.7194 76.9565 64.8456 76.9251 64.991 76.9251 65.1547 76.9251 65.3158 76.9565 65.4618 77.02 65.5922 77.0834 65.7225 77.1701 65.8249 77.28 65.8986 77.3898 65.9723 77.5168 66.0091 77.6587 66.0091Z" fill="#FFFFFF" transform="matrix(1.00396 0 0 1 0.0236858 0)"/><path d="M80.8279 66.0726C80.8279 66.1047 80.8156 66.1333 80.7917 66.1572 80.7678 66.1818 80.7392 66.1934 80.7071 66.1934 80.6723 66.1934 80.6436 66.1811 80.6204 66.1572 80.5972 66.1333 80.5863 66.1047 80.5863 66.0726L80.5863 63.3327C80.5863 63.3006 80.5986 63.2719 80.6225 63.2481 80.647 63.2235 80.675 63.2119 80.7071 63.2119 80.7419 63.2119 80.7712 63.2242 80.7938 63.2481 80.817 63.2719 80.8279 63.3006 80.8279 63.3327L80.8279 66.0726Z" fill="#FFFFFF" transform="matrix(1.00396 0 0 1 0.0236858 0)"/><path d="M84.0823 63.3729 85.5611 63.3729C85.5932 63.3729 85.6219 63.3845 85.6458 63.4071 85.6703 63.4303 85.6819 63.4589 85.6819 63.4937 85.6819 63.5285 85.6696 63.5572 85.6458 63.5783 85.6219 63.5995 85.5932 63.6104 85.5611 63.6104L84.1751 63.6104 84.2154 63.5422 84.2154 64.6743 84.1711 64.6218 85.3796 64.6218C85.4117 64.6218 85.4397 64.634 85.4642 64.6579 85.4881 64.6825 85.5004 64.7105 85.5004 64.7426 85.5004 64.7774 85.4881 64.806 85.4642 64.8272 85.4397 64.849 85.4117 64.8593 85.3796 64.8593L84.1786 64.8593 84.2147 64.819 84.2147 65.9798 84.1943 65.9559 85.5605 65.9559C85.5925 65.9559 85.6212 65.9682 85.6451 65.9921 85.6696 66.016 85.6813 66.0446 85.6813 66.0767 85.6813 66.1115 85.669 66.1395 85.6451 66.1613 85.6212 66.1825 85.5925 66.1934 85.5605 66.1934L84.0817 66.1934C84.0496 66.1934 84.0216 66.1811 83.997 66.1572 83.9732 66.1333 83.9609 66.1047 83.9609 66.0726L83.9609 63.4937C83.9609 63.4617 83.9732 63.433 83.997 63.4091 84.0216 63.3845 84.0496 63.3729 84.0817 63.3729Z" fill="#FFFFFF" transform="matrix(1.00396 0 0 1 0.0236858 0)"/><path d="M89.1698 63.2119C89.2046 63.2119 89.2332 63.2235 89.2564 63.246 89.279 63.2685 89.2906 63.2979 89.2906 63.3327L89.2906 66.0726C89.2906 66.1047 89.2783 66.1333 89.2544 66.1572 89.2305 66.1818 89.2019 66.1934 89.1698 66.1934 89.135 66.1934 89.1063 66.1811 89.0831 66.1572 89.0606 66.1333 89.049 66.1047 89.049 66.0726L89.049 65.5928 89.1179 65.5362C89.1179 65.6113 89.0974 65.6898 89.0572 65.7716 89.0169 65.8535 88.9596 65.9293 88.8859 65.9989 88.8122 66.0685 88.7262 66.1251 88.6279 66.1681 88.5297 66.2111 88.4246 66.2323 88.312 66.2323 88.1318 66.2323 87.9701 66.1852 87.8261 66.091 87.6821 65.9968 87.5688 65.8692 87.4856 65.7082 87.4023 65.5471 87.3607 65.3629 87.3607 65.1561 87.3607 64.9521 87.4023 64.7685 87.4856 64.6061 87.5688 64.4437 87.6814 64.316 87.824 64.2232 87.9667 64.1304 88.1277 64.084 88.3072 64.084 88.4171 64.084 88.5222 64.1038 88.6218 64.1448 88.7214 64.185 88.8088 64.2403 88.8859 64.3099 88.9623 64.3795 89.0231 64.46 89.0674 64.5494 89.1118 64.6395 89.1336 64.733 89.1336 64.8292L89.049 64.7685 89.049 63.3299C89.049 63.2979 89.0606 63.2692 89.0831 63.2453 89.1063 63.2208 89.135 63.2092 89.1698 63.2092ZM88.3318 66.0084C88.4764 66.0084 88.6034 65.9716 88.7126 65.8979 88.8211 65.8242 88.907 65.7232 88.9705 65.5956 89.034 65.468 89.0654 65.3219 89.0654 65.1581 89.0654 64.9971 89.034 64.8524 88.9705 64.7248 88.9077 64.5972 88.8211 64.4962 88.7105 64.4225 88.6006 64.3488 88.4744 64.3113 88.3318 64.3113 88.1919 64.3113 88.0663 64.3481 87.9551 64.4225 87.8438 64.4962 87.7565 64.5972 87.693 64.7248 87.6296 64.8524 87.5982 64.9964 87.5982 65.1581 87.5982 65.3192 87.6296 65.4646 87.693 65.5935 87.7565 65.7225 87.8432 65.8242 87.9551 65.8979 88.0663 65.9716 88.1919 66.0084 88.3318 66.0084Z" fill="#FFFFFF" transform="matrix(1.00396 0 0 1 0.0236858 0)"/><path d="M92.8385 64.1468C92.8733 64.1468 92.9026 64.1591 92.9251 64.183 92.9477 64.2075 92.9593 64.2355 92.9593 64.2676L92.9593 65.4038C92.9593 65.67 92.8842 65.8726 92.7334 66.0125 92.5832 66.1524 92.3799 66.222 92.1247 66.222 91.8722 66.222 91.6715 66.1524 91.5221 66.0125 91.3733 65.8726 91.2982 65.67 91.2982 65.4038L91.2982 64.2676C91.2982 64.2355 91.3099 64.2075 91.3324 64.183 91.3556 64.1591 91.3842 64.1468 91.419 64.1468 91.4538 64.1468 91.4825 64.1591 91.5057 64.183 91.5282 64.2075 91.5398 64.2355 91.5398 64.2676L91.5398 65.4038C91.5398 65.5969 91.5917 65.7443 91.6947 65.8447 91.7985 65.9457 91.9411 65.9955 92.124 65.9955 92.3096 65.9955 92.4543 65.945 92.5594 65.8447 92.6638 65.7443 92.7163 65.5969 92.7163 65.4038L92.7163 64.2676C92.7163 64.2355 92.7272 64.2075 92.7484 64.183 92.7696 64.1591 92.7996 64.1468 92.8371 64.1468Z" fill="#FFFFFF" transform="matrix(1.00396 0 0 1 0.0236858 0)"/><path d="M95.8104 64.0861C95.9394 64.0861 96.0574 64.1004 96.1653 64.1284 96.2724 64.1564 96.3591 64.1953 96.4253 64.243 96.4908 64.2915 96.5242 64.344 96.5242 64.4 96.5242 64.4266 96.5147 64.4532 96.4962 64.4785 96.4771 64.5037 96.4519 64.5167 96.4198 64.5167 96.3877 64.5167 96.3611 64.5085 96.3413 64.4928 96.3215 64.4764 96.3011 64.458 96.2806 64.4361 96.2608 64.4143 96.2315 64.3945 96.1939 64.3754 96.1591 64.359 96.1093 64.3447 96.0452 64.3311 95.981 64.3174 95.9066 64.3113 95.8234 64.3113 95.6732 64.3113 95.5374 64.3488 95.4166 64.4239 95.2959 64.4989 95.2003 64.6006 95.1307 64.7282 95.0611 64.8558 95.0263 64.9991 95.0263 65.1575 95.0263 65.3185 95.0597 65.4639 95.1273 65.5928 95.1942 65.7218 95.287 65.8235 95.4051 65.8972 95.5231 65.9709 95.6616 66.0078 95.82 66.0078 95.9271 66.0078 96.0104 65.9982 96.0697 65.9798 96.1291 65.9607 96.1796 65.9395 96.2233 65.9156 96.2745 65.8863 96.3113 65.8576 96.3338 65.829 96.3563 65.801 96.3871 65.7867 96.4246 65.7867 96.4594 65.7867 96.486 65.7969 96.5031 65.8167 96.5208 65.8365 96.529 65.8631 96.529 65.8952 96.529 65.9382 96.4976 65.9859 96.4341 66.0385 96.3707 66.091 96.284 66.1367 96.1741 66.1756 96.0643 66.2145 95.938 66.2336 95.7954 66.2336 95.5941 66.2336 95.4173 66.1866 95.2658 66.0924 95.1143 65.9982 94.9956 65.8699 94.911 65.7075 94.8264 65.5451 94.784 65.3615 94.784 65.1575 94.784 64.9616 94.827 64.7828 94.913 64.6218 94.999 64.4607 95.1191 64.3311 95.2733 64.2328 95.4276 64.1345 95.607 64.0861 95.8111 64.0861Z" fill="#FFFFFF" transform="matrix(1.00396 0 0 1 0.0236858 0)"/><path d="M99.9909 64.1345C100.026 64.1345 100.054 64.1468 100.078 64.1707 100.1 64.1953 100.112 64.2246 100.112 64.2594L100.112 66.0726C100.112 66.1047 100.099 66.1333 100.076 66.1572 100.052 66.1818 100.023 66.1934 99.9909 66.1934 99.9561 66.1934 99.9275 66.1811 99.9043 66.1572 99.8817 66.1333 99.8701 66.1047 99.8701 66.0726L99.8701 65.5928 99.939 65.5608C99.939 65.6358 99.9179 65.713 99.8763 65.7908 99.8346 65.8685 99.7773 65.9409 99.705 66.0084 99.6326 66.0753 99.5473 66.1299 99.4491 66.1715 99.3508 66.2132 99.2457 66.2336 99.1331 66.2336 98.9502 66.2336 98.7871 66.1866 98.6438 66.0924 98.4998 65.9982 98.3872 65.8692 98.3053 65.7055 98.2234 65.5417 98.1825 65.3574 98.1825 65.1534 98.1825 64.9439 98.2241 64.7589 98.3074 64.5993 98.3906 64.4396 98.5032 64.314 98.6459 64.2225 98.7885 64.1311 98.9495 64.0854 99.129 64.0854 99.2444 64.0854 99.3529 64.1052 99.4532 64.1461 99.5542 64.1864 99.6422 64.2417 99.7173 64.3113 99.7923 64.3809 99.851 64.4614 99.8927 64.5508 99.9343 64.6409 99.9547 64.7344 99.9547 64.8306L99.8701 64.7699 99.8701 64.258C99.8701 64.2232 99.8817 64.1939 99.9043 64.1693 99.9275 64.1454 99.9561 64.1332 99.9909 64.1332ZM99.1529 66.0084C99.2955 66.0084 99.4218 65.9716 99.5316 65.8979 99.6415 65.8242 99.7282 65.7218 99.7916 65.5915 99.8551 65.4611 99.8865 65.3158 99.8865 65.1541 99.8865 64.9957 99.8551 64.8531 99.7916 64.7269 99.7289 64.6006 99.6422 64.4996 99.5316 64.4245 99.4218 64.3495 99.2955 64.312 99.1529 64.312 99.013 64.312 98.8874 64.3481 98.7762 64.4211 98.665 64.4935 98.5776 64.5931 98.5142 64.7194 98.4507 64.8456 98.4193 64.991 98.4193 65.1547 98.4193 65.3158 98.4507 65.4618 98.5142 65.5922 98.5776 65.7225 98.6643 65.8249 98.7742 65.8986 98.884 65.9723 99.011 66.0091 99.1529 66.0091Z" fill="#FFFFFF" transform="matrix(1.00396 0 0 1 0.0236858 0)"/><path d="M101.924 64.1427 102.863 64.1427C102.895 64.1427 102.922 64.1543 102.943 64.1768 102.964 64.2 102.975 64.2273 102.975 64.2594 102.975 64.2887 102.964 64.3147 102.943 64.3358 102.921 64.357 102.895 64.3679 102.863 64.3679L101.924 64.3679C101.891 64.3679 101.863 64.3563 101.841 64.3338 101.818 64.3113 101.807 64.2847 101.807 64.2553 101.807 64.2232 101.818 64.1959 101.841 64.1748 101.864 64.1529 101.891 64.1427 101.924 64.1427ZM102.338 63.5749C102.373 63.5749 102.402 63.5872 102.425 63.6111 102.448 63.6357 102.459 63.6636 102.459 63.6957L102.459 65.7184C102.459 65.7935 102.469 65.8501 102.489 65.8877 102.509 65.9252 102.536 65.9498 102.568 65.962 102.6 65.9743 102.632 65.9798 102.665 65.9798 102.686 65.9798 102.706 65.9764 102.723 65.9696 102.74 65.9627 102.76 65.9593 102.781 65.9593 102.806 65.9593 102.826 65.9689 102.844 65.9873 102.861 66.0064 102.87 66.0303 102.87 66.0596 102.87 66.0972 102.849 66.1286 102.806 66.1545 102.763 66.1797 102.712 66.1927 102.653 66.1927 102.628 66.1927 102.592 66.1907 102.544 66.1866 102.495 66.1825 102.446 66.1674 102.395 66.1422 102.344 66.117 102.302 66.0719 102.268 66.0071 102.235 65.9429 102.218 65.8501 102.218 65.7293L102.218 63.6944C102.218 63.6623 102.229 63.6343 102.252 63.6097 102.275 63.5859 102.304 63.5736 102.338 63.5736Z" fill="#FFFFFF" transform="matrix(1.00396 0 0 1 0.0236858 0)"/><path d="M104.968 66.0726C104.968 66.1047 104.956 66.1333 104.932 66.1572 104.907 66.1818 104.879 66.1934 104.847 66.1934 104.812 66.1934 104.784 66.1811 104.76 66.1572 104.738 66.1333 104.726 66.1047 104.726 66.0726L104.726 64.2191C104.726 64.1871 104.738 64.1591 104.76 64.1345 104.784 64.1106 104.812 64.0984 104.847 64.0984 104.882 64.0984 104.91 64.1106 104.934 64.1345 104.956 64.1591 104.968 64.1871 104.968 64.2191L104.968 66.0726ZM104.847 63.8281C104.79 63.8281 104.748 63.8151 104.72 63.7899 104.692 63.7646 104.678 63.7278 104.678 63.6793L104.678 63.6391C104.678 63.5906 104.693 63.5538 104.724 63.5285 104.755 63.5033 104.797 63.4903 104.851 63.4903 104.902 63.4903 104.942 63.5033 104.97 63.5285 104.998 63.5538 105.012 63.5906 105.012 63.6391L105.012 63.6793C105.012 63.7278 104.998 63.7646 104.97 63.7899 104.942 63.8151 104.901 63.8281 104.847 63.8281Z" fill="#FFFFFF" transform="matrix(1.00396 0 0 1 0.0236858 0)"/><path d="M108.826 65.1622C108.826 65.3663 108.782 65.5499 108.693 65.7123 108.604 65.8747 108.484 66.0023 108.331 66.0951 108.177 66.1879 108.003 66.2343 107.807 66.2343 107.616 66.2343 107.444 66.1879 107.289 66.0951 107.134 66.0023 107.012 65.8747 106.922 65.7123 106.832 65.5499 106.787 65.3663 106.787 65.1622 106.787 64.9555 106.832 64.7712 106.922 64.6102 107.012 64.4491 107.134 64.3215 107.289 64.2273 107.443 64.1332 107.616 64.0861 107.807 64.0861 108.003 64.0861 108.177 64.1332 108.331 64.2273 108.484 64.3215 108.604 64.4491 108.693 64.6102 108.782 64.7712 108.826 64.9555 108.826 65.1622ZM108.585 65.1622C108.585 64.9985 108.551 64.8524 108.484 64.7248 108.417 64.5972 108.325 64.4962 108.208 64.4225 108.091 64.3488 107.957 64.3113 107.807 64.3113 107.662 64.3113 107.53 64.3481 107.412 64.4225 107.294 64.4962 107.201 64.5972 107.132 64.7248 107.064 64.8524 107.03 64.9978 107.03 65.1622 107.03 65.326 107.064 65.4714 107.132 65.5976 107.201 65.7239 107.294 65.8242 107.412 65.8979 107.53 65.9716 107.662 66.0084 107.807 66.0084 107.957 66.0084 108.091 65.9716 108.208 65.8979 108.325 65.8242 108.417 65.7239 108.484 65.5976 108.551 65.4714 108.585 65.326 108.585 65.1622Z" fill="#FFFFFF" transform="matrix(1.00396 0 0 1 0.0236858 0)"/><path d="M111.625 64.0861C111.803 64.0861 111.944 64.1216 112.051 64.1925 112.157 64.2635 112.234 64.3604 112.281 64.4826 112.328 64.6047 112.351 64.7398 112.351 64.8872L112.351 66.0719C112.351 66.104 112.339 66.1326 112.315 66.1565 112.291 66.1811 112.262 66.1927 112.23 66.1927 112.193 66.1927 112.163 66.1804 112.141 66.1565 112.12 66.1326 112.109 66.104 112.109 66.0719L112.109 64.8995C112.109 64.7924 112.092 64.6941 112.057 64.6054 112.022 64.5167 111.965 64.4457 111.885 64.3918 111.806 64.3379 111.702 64.3113 111.573 64.3113 111.458 64.3113 111.348 64.3379 111.245 64.3918 111.141 64.4457 111.058 64.5167 110.993 64.6054 110.929 64.6941 110.896 64.7924 110.896 64.8995L110.896 66.0719C110.896 66.104 110.884 66.1326 110.86 66.1565 110.835 66.1811 110.807 66.1927 110.775 66.1927 110.738 66.1927 110.708 66.1804 110.686 66.1565 110.665 66.1326 110.654 66.104 110.654 66.0719L110.654 64.2669C110.654 64.2348 110.666 64.2069 110.689 64.1823 110.712 64.1584 110.74 64.1461 110.775 64.1461 110.81 64.1461 110.839 64.1584 110.862 64.1823 110.884 64.2069 110.896 64.2348 110.896 64.2669L110.896 64.6054 110.803 64.7501C110.809 64.6641 110.836 64.5815 110.886 64.5023 110.936 64.4232 110.999 64.3522 111.077 64.2887 111.155 64.226 111.241 64.1761 111.337 64.14 111.432 64.1038 111.528 64.0854 111.625 64.0854Z" fill="#FFFFFF" transform="matrix(1.00396 0 0 1 0.0236858 0)"/></g></svg>