<?xml version="1.0" encoding="UTF-8"?>
<!DOCTYPE svg PUBLIC "-//W3C//DTD SVG 1.1//EN" "http://www.w3.org/Graphics/SVG/1.1/DTD/svg11.dtd">
<!-- Creator: CorelDRAW -->
<svg xmlns="http://www.w3.org/2000/svg" xml:space="preserve" width="5.19276in" height="2.46875in" version="1.1" style="shape-rendering:geometricPrecision; text-rendering:geometricPrecision; image-rendering:optimizeQuality; fill-rule:evenodd; clip-rule:evenodd"
viewBox="0 0 22864 10870.05"
 xmlns:xlink="http://www.w3.org/1999/xlink"
 xmlns:xodm="http://www.corel.com/coreldraw/odm/2003">
 <defs>
  <style type="text/css">
   <![CDATA[
    .fil0 {fill:#CCCCCC}
    .fil2 {fill:#B9B9B9;fill-rule:nonzero}
    .fil4 {fill:#BABABA;fill-rule:nonzero}
    .fil3 {fill:#CCCCCC;fill-rule:nonzero}
    .fil1 {fill:#CCCCCC;fill-rule:nonzero}
   ]]>
  </style>
    <mask id="id0">
  <linearGradient id="id1" gradientUnits="userSpaceOnUse" x1="15606.54" y1="1707.4" x2="13447.45" y2="4255.49">
   <stop offset="0" style="stop-opacity:1; stop-color:white"/>
   <stop offset="1" style="stop-opacity:0; stop-color:white"/>
  </linearGradient>
     <rect style="fill:url(#id1)" x="12324.34" y="1362.9" width="5281.67" height="3560.98"/>
    </mask>
 </defs>
 <g id="Layer_x0020_1">
  <metadata id="CorelCorpID_0Corel-Layer"/>
  <g id="_1742662855008">
   <path class="fil0" d="M10974.12 0c248.08,0 480.63,120.98 622.91,324.23l250.09 357.2 -434.24 0c-248.03,0 -480.54,121.05 -622.86,324.27l-1835.73 2621.69c-117.63,168.01 2.57,398.84 207.64,398.84l5027.32 0 477.14 681.5c100.94,144.1 258.08,216.17 415.27,216.17l-6344.75 0c-157.18,0 -314.35,-72.06 -415.31,-216.17l-3017.08 -4308.91c-117.65,-167.99 2.57,-398.82 207.64,-398.82l5461.95 0z"/>
   <path class="fil1" d="M17352.07 1362.9c205.09,0 325.27,230.87 207.65,398.86l-2062.8 2945.95c-100.91,144.1 -258.1,216.17 -415.26,216.17l-6344.75 0c157.18,0 314.35,-72.06 415.26,-216.17l2115.03 -3020.55c142.28,-203.23 374.8,-324.27 622.89,-324.27l5461.97 0z"/>
   <path class="fil2" style="mask:url(#id0)" d="M12324.34 1362.9l2342.06 3344.81c100.91,144.1 258.1,216.17 415.27,216.17 157.18,0 314.35,-72.06 415.26,-216.17l2062.8 -2945.95c117.63,-167.99 -2.57,-398.86 -207.65,-398.86l-5027.73 0z"/>
   <path class="fil3" d="M2099.3 9148.37l0 596.3c0,749.91 -349.89,1125.38 -1049.64,1125.38 -699.77,0 -1049.66,-375.47 -1049.66,-1125.38l0 -2330.78c0,-750.98 349.89,-1125.4 1049.66,-1125.4 699.76,0 1049.64,374.42 1049.64,1125.4l0 437.34 -665.62 0 0 -481.08c0,-294.42 -121.62,-440.57 -364.83,-440.57 -244.28,0 -365.89,146.15 -365.89,440.57l0 2418.25c0,292.28 121.6,437.34 365.89,437.34 243.21,0 364.83,-145.06 364.83,-437.34l0 -640.04 665.62 0z"/>
   <path id="_1" class="fil3" d="M3561.78 6338.63c699.76,0 1049.64,369.09 1049.64,1109.4l0 581.36c0,737.1 -349.89,1106.19 -1049.64,1106.19l-333.89 0 0 1684.34 -704.04 0 0 -4481.29 1037.92 0zm-333.89 640.04l0 1519 333.89 0c229.34,0 343.47,-141.87 343.47,-424.55l0 -672.04c0,-281.6 -114.13,-422.42 -343.47,-422.42l-333.89 0z"/>
   <polygon id="_2" class="fil3" points="5640.78,8228.86 6609.35,8228.86 6609.35,8866.76 5640.78,8866.76 5640.78,10178.82 6855.76,10178.82 6855.76,10819.91 4936.76,10819.91 4936.76,6338.63 6855.76,6338.63 6855.76,6978.67 5640.78,6978.67 "/>
   <polygon class="fil4" points="9519.37,8432.59 9263.37,10819.91 8298,10819.91 7797.7,6338.63 8481.46,6338.63 8860.14,9872.67 9200.42,6338.63 9878.86,6338.63 10228.74,9898.27 10594.63,6338.63 11210.12,6338.63 10709.82,10819.91 9775.38,10819.91 "/>
   <path id="_1_0" class="fil4" d="M13838.52 10819.91l-709.38 0 -121.6 -812.83 -862.96 0 -121.6 812.83 -646.43 0 714.7 -4481.29 1031.51 0 715.77 4481.29zm-1606.47 -1421.93l681.62 0 -340.28 -2265.72 -341.34 2265.72z"/>
   <polygon id="_2_1" class="fil4" points="14162.8,6338.63 14866.84,6338.63 14866.84,10178.82 16025.29,10178.82 16025.29,10819.91 14162.8,10819.91 "/>
   <polygon id="_3" class="fil4" points="16344.24,6338.63 17048.28,6338.63 17048.28,10178.82 18206.73,10178.82 18206.73,10819.91 16344.24,10819.91 "/>
   <polygon id="_4" class="fil4" points="19229.69,8228.86 20198.26,8228.86 20198.26,8866.76 19229.69,8866.76 19229.69,10178.82 20444.68,10178.82 20444.68,10819.91 18525.67,10819.91 18525.67,6338.63 20444.68,6338.63 20444.68,6978.67 19229.69,6978.67 "/>
   <polygon id="_5" class="fil4" points="20688.96,6338.63 22864,6338.63 22864,6978.67 22129.02,6978.67 22129.02,10819.91 21426.05,10819.91 21426.05,6978.67 20688.96,6978.67 "/>
  </g>
 </g>
</svg>
