<?xml version="1.0" encoding="UTF-8"?>
<!DOCTYPE svg PUBLIC "-//W3C//DTD SVG 1.1//EN" "http://www.w3.org/Graphics/SVG/1.1/DTD/svg11.dtd">
<!-- Creator: CorelDRAW -->
<svg xmlns="http://www.w3.org/2000/svg" xml:space="preserve" width="5.87598in" height="2.79357in" version="1.1" style="shape-rendering:geometricPrecision; text-rendering:geometricPrecision; image-rendering:optimizeQuality; fill-rule:evenodd; clip-rule:evenodd"
viewBox="0 0 4553.66 2164.91"
 xmlns:xlink="http://www.w3.org/1999/xlink"
 xmlns:xodm="http://www.corel.com/coreldraw/odm/2003">
 <defs>
  <style type="text/css">
   <![CDATA[
    .fil0 {fill:white}
    .fil1 {fill:#E6E6E6;fill-rule:nonzero}
    .fil2 {fill:white;fill-rule:nonzero}
   ]]>
  </style>
    <mask id="id0">
  <linearGradient id="id1" gradientUnits="userSpaceOnUse" x1="3108.24" y1="340.05" x2="2678.24" y2="847.54">
   <stop offset="0" style="stop-opacity:1; stop-color:white"/>
   <stop offset="1" style="stop-opacity:0; stop-color:white"/>
  </linearGradient>
     <rect style="fill:url(#id1)" x="2454.55" y="271.44" width="1051.91" height="709.22"/>
    </mask>
 </defs>
 <g id="Layer_x0020_1">
  <metadata id="CorelCorpID_0Corel-Layer"/>
  <g id="_1742669431776">
   <path class="fil0" d="M2185.64 0c49.41,0 95.72,24.09 124.06,64.58l49.81 71.14 -86.48 0c-49.4,0 -95.71,24.11 -124.05,64.58l-365.61 522.14c-23.43,33.46 0.51,79.43 41.35,79.43l1001.26 0 95.03 135.73c20.1,28.7 51.4,43.06 82.71,43.06l-1263.64 0c-31.3,0 -62.6,-14.36 -82.71,-43.06l-600.89 -858.17c-23.43,-33.46 0.51,-79.43 41.35,-79.43l1087.82 0z"/>
   <path class="fil1" d="M3455.89 271.44c40.84,0 64.78,45.98 41.36,79.44l-410.83 586.72c-20.1,28.7 -51.4,43.06 -82.71,43.06l-1263.64 0c31.31,0 62.61,-14.35 82.7,-43.06l421.23 -601.58c28.34,-40.47 74.65,-64.58 124.06,-64.58l1087.82 0z"/>
   <path class="fil2" style="mask:url(#id0)" d="M2454.55 271.44l466.45 666.16c20.1,28.7 51.4,43.06 82.71,43.06 31.31,0 62.61,-14.35 82.71,-43.06l410.83 -586.72c23.43,-33.46 -0.51,-79.44 -41.36,-79.44l-1001.34 0z"/>
   <path class="fil2" d="M418.1 1822.01l0 118.76c0,149.35 -69.69,224.14 -209.05,224.14 -139.37,0 -209.05,-74.78 -209.05,-224.14l0 -464.21c0,-149.56 69.68,-224.13 209.05,-224.13 139.37,0 209.05,74.57 209.05,224.13l0 87.11 -132.57 0 0 -95.81c0,-58.64 -24.22,-87.74 -72.66,-87.74 -48.65,0 -72.87,29.11 -72.87,87.74l0 481.62c0,58.21 24.22,87.11 72.87,87.11 48.44,0 72.66,-28.89 72.66,-87.11l0 -127.47 132.57 0z"/>
   <path id="_1" class="fil2" d="M709.37 1262.42c139.37,0 209.05,73.51 209.05,220.95l0 115.78c0,146.8 -69.69,220.31 -209.05,220.31l-66.5 0 0 335.46 -140.22 0 0 -892.51 206.71 0zm-66.5 127.47l0 302.53 66.5 0c45.68,0 68.41,-28.26 68.41,-84.56l0 -133.84c0,-56.09 -22.73,-84.13 -68.41,-84.13l-66.5 0z"/>
   <polygon id="_2" class="fil2" points="1123.44,1638.88 1316.35,1638.88 1316.35,1765.93 1123.44,1765.93 1123.44,2027.24 1365.42,2027.24 1365.42,2154.92 983.23,2154.92 983.23,1262.42 1365.42,1262.42 1365.42,1389.89 1123.44,1389.89 "/>
   <polygon class="fil2" points="1895.91,1679.46 1844.92,2154.92 1652.65,2154.92 1553.01,1262.42 1689.19,1262.42 1764.62,1966.27 1832.39,1262.42 1967.51,1262.42 2037.19,1971.37 2110.06,1262.42 2232.64,1262.42 2133,2154.92 1946.9,2154.92 "/>
   <path id="_1_0" class="fil2" d="M2756.12 2154.92l-141.28 0 -24.22 -161.89 -171.87 0 -24.22 161.89 -128.74 0 142.34 -892.51 205.44 0 142.55 892.51zm-319.95 -283.2l135.76 0 -67.77 -451.25 -67.99 451.25z"/>
   <polygon id="_2_1" class="fil2" points="2820.71,1262.42 2960.92,1262.42 2960.92,2027.24 3191.64,2027.24 3191.64,2154.92 2820.71,2154.92 "/>
   <polygon id="_3" class="fil2" points="3255.17,1262.42 3395.38,1262.42 3395.38,2027.24 3626.1,2027.24 3626.1,2154.92 3255.17,2154.92 "/>
   <polygon id="_4" class="fil2" points="3829.84,1638.88 4022.75,1638.88 4022.75,1765.93 3829.84,1765.93 3829.84,2027.24 4071.83,2027.24 4071.83,2154.92 3689.63,2154.92 3689.63,1262.42 4071.83,1262.42 4071.83,1389.89 3829.84,1389.89 "/>
   <polygon id="_5" class="fil2" points="4120.48,1262.42 4553.66,1262.42 4553.66,1389.89 4407.28,1389.89 4407.28,2154.92 4267.28,2154.92 4267.28,1389.89 4120.48,1389.89 "/>
  </g>
 </g>
</svg>
